<?xml version="1.0" standalone="no"?>
<!DOCTYPE svg PUBLIC "-//W3C//DTD SVG 1.1//EN" "http://www.w3.org/Graphics/SVG/1.1/DTD/svg11.dtd" >
<svg xmlns="http://www.w3.org/2000/svg">
<metadata>
This is a custom SVG webfont generated by Font Squirrel.
Copyright   : Copyright c 1988 1990 Adobe Systems Incorporated  All Rights ReservedHelvetica is a registered trademark of Linotype AG andor its subsidiaries
</metadata>
<defs>
<font id="HelveticaNeueHeavy" horiz-adv-x="1290" >
<font-face units-per-em="2048" ascent="1638" descent="-410" />
<missing-glyph horiz-adv-x="645" />
<glyph unicode=" "  horiz-adv-x="645" />
<glyph unicode="&#x09;" horiz-adv-x="645" />
<glyph unicode="&#xa0;" horiz-adv-x="645" />
<glyph unicode="!" horiz-adv-x="606" d="M113 0h381v381h-381v-381zM125 1100l94 -617h170l94 617v362h-358v-362z" />
<glyph unicode="&#x22;" horiz-adv-x="1024" d="M127 725h295v737h-295v-737zM602 725h295v737h-295v-737z" />
<glyph unicode="#" d="M141 389h152l-53 -389h235l53 389h166l-53 -389h236l53 389h157v215h-126l30 225h158v215h-127l53 383h-235l-54 -383h-165l53 383h-236l-53 -383h-182v-215h151l-30 -225h-183v-215zM559 604l31 225h166l-31 -225h-166z" />
<glyph unicode="$" d="M10 483q0 -135 49.5 -231t131 -157.5t190 -91.5t229.5 -34v-184h97v184q113 4 216 32t183 85t128 146.5t48 218.5q0 98 -37 168.5t-96 118.5t-135 80t-156 54q-39 10 -78 19.5t-73 19.5v279q66 -16 108.5 -57t38.5 -119h381q0 119 -45 206t-118 145t-168 89t-197 37v186 h-97v-184q-100 -4 -199.5 -30.5t-179 -81t-129 -138.5t-49.5 -203q0 -100 38 -170.5t98.5 -119t137 -79t154.5 -53.5q35 -10 68 -18t61 -16v-322q-98 10 -155.5 60.5t-63.5 160.5h-381zM434 1065q0 37 16.5 62.5t42 41t56.5 22.5t61 7v-262q-78 23 -127 51.5t-49 77.5z M707 264v293q88 -25 141 -58.5t53 -92.5q0 -37 -17.5 -63t-46 -43t-62 -25.5t-68.5 -10.5z" />
<glyph unicode="%" horiz-adv-x="2086" d="M154 1053q0 -86 20.5 -158t63.5 -125t109.5 -82t158.5 -29q94 0 160.5 29t108.5 81t61.5 125t19.5 159q0 88 -20.5 160.5t-63.5 124t-109.5 80t-156.5 28.5q-88 0 -154.5 -30t-109.5 -83t-65.5 -124.5t-22.5 -155.5zM393 1053q0 31 2 69.5t12.5 74.5t33 60.5t65.5 24.5 q41 0 63.5 -24.5t32.5 -60.5t12 -75t2 -69q0 -31 -2 -70t-12 -75t-32.5 -60.5t-63.5 -24.5q-43 0 -65.5 24.5t-33 60.5t-12.5 75t-2 70zM532 -55h203l828 1538h-203zM1233 375q0 -86 20.5 -158t63.5 -125t109.5 -81.5t158.5 -28.5q94 0 160.5 28.5t108.5 80.5t61.5 125 t19.5 159q0 88 -20.5 160.5t-63.5 124t-109.5 80t-156.5 28.5q-88 0 -154.5 -29.5t-109.5 -83t-65.5 -125t-22.5 -155.5zM1473 375q0 31 2 69.5t12 74.5t32.5 60.5t65.5 24.5q41 0 63.5 -24.5t33 -60.5t12.5 -74.5t2 -69.5t-2 -70t-12.5 -74.5t-33 -60.5t-63.5 -25 q-43 0 -65.5 25t-32.5 60.5t-12 74.5t-2 70z" />
<glyph unicode="&#x26;" horiz-adv-x="1478" d="M70 416q0 -102 40 -184t106.5 -140.5t154.5 -90.5t186 -32q123 0 223.5 38t196.5 116l102 -123h424l-307 356q68 72 110 165t52 192h-299q-10 -78 -53 -144l-152 183q111 55 180.5 144t69.5 218q0 88 -34 157.5t-91 119t-132 76t-157 26.5q-80 0 -154.5 -25.5t-133 -73.5 t-94.5 -117t-36 -155q0 -84 38 -152.5t91 -127.5q-66 -31 -126 -72t-106 -93t-72.5 -117.5t-26.5 -143.5zM406 420q0 33 16 62.5t41.5 54t55.5 44t56 31.5l218 -256q-41 -39 -93.5 -71.5t-101.5 -32.5q-35 0 -69.5 12t-62.5 33.5t-44 52.5t-16 70zM582 1139q0 47 33.5 77.5 t80.5 30.5q53 0 88 -29.5t35 -82.5q0 -66 -41 -107t-94 -74q-35 43 -68.5 84.5t-33.5 100.5z" />
<glyph unicode="'" horiz-adv-x="606" d="M156 725h295v737h-295v-737z" />
<glyph unicode="(" horiz-adv-x="606" d="M74 561q2 -131 18.5 -244.5t48 -222t78.5 -218t111 -232.5h295q-104 213 -167 446.5t-59 470.5q-4 248 58.5 483.5t167.5 448.5h-295q-63 -123 -110.5 -233.5t-79 -220t-48 -225.5t-18.5 -253z" />
<glyph unicode=")" horiz-adv-x="606" d="M-18 -356h294q63 123 110.5 232.5t79.5 218t48 222t18 244.5q-2 137 -18 253t-48 225.5t-79 220t-111 233.5h-294q104 -213 166.5 -448.5t58.5 -483.5q4 -238 -58.5 -471t-166.5 -446z" />
<glyph unicode="*" horiz-adv-x="909" d="M51 1100l250 -78l-162 -213l160 -119l152 219l153 -219l162 121l-158 211l248 78l-63 190l-238 -90v262h-203v-262l-237 90z" />
<glyph unicode="+" horiz-adv-x="1228" d="M98 371h369v-371h295v371h368v295h-368v370h-295v-370h-369v-295z" />
<glyph unicode="," horiz-adv-x="647" d="M133 0h168q-10 -80 -47 -125t-121 -68v-163q57 6 124 27.5t124 67.5t95 119.5t38 184.5v338h-381v-381z" />
<glyph unicode="-" horiz-adv-x="833" d="M98 410h637v295h-637v-295z" />
<glyph unicode="." horiz-adv-x="647" d="M133 0h381v381h-381v-381z" />
<glyph unicode="/" horiz-adv-x="833" d="M-18 -31h319l551 1524h-320z" />
<glyph unicode="0" d="M76 715q0 -143 30.5 -275.5t97 -234t173 -162.5t258.5 -61q158 0 267.5 61t180 162.5t102.5 233.5t32 276q0 143 -32 275t-102.5 233.5t-180 162t-267.5 60.5q-152 0 -258.5 -60.5t-173 -162t-97 -233.5t-30.5 -275zM412 715q0 70 5 148.5t28.5 145t70.5 110.5t129 44 q86 0 133 -44t70.5 -110.5t28 -145.5t4.5 -148q0 -70 -4.5 -149t-28 -146.5t-70.5 -111.5t-133 -44q-82 0 -129 44t-70.5 111.5t-28.5 146.5t-5 149z" />
<glyph unicode="1" d="M215 877h342v-877h369v1427h-289q-6 -84 -44 -141t-97.5 -92t-132 -49.5t-148.5 -11.5v-256z" />
<glyph unicode="2" d="M66 0h1144v295h-678q35 35 65 59.5t58.5 46t61.5 42t74 44.5q78 49 151.5 95.5t129.5 103.5t90 131t34 176q0 115 -44 200t-117.5 141.5t-170 84t-202.5 27.5q-133 0 -241 -43t-181.5 -121t-110.5 -187.5t-29 -242.5h326q0 59 11.5 111.5t39 91.5t72.5 62.5t115 23.5 q84 0 134 -47t50 -131q0 -72 -52.5 -128.5t-133.5 -109.5q-84 -53 -182.5 -111.5t-190.5 -138.5q-106 -92 -163.5 -215t-59.5 -260z" />
<glyph unicode="3" d="M59 518q-8 -137 36 -238.5t124 -167t189.5 -98t234.5 -32.5q106 0 209.5 26.5t185.5 81.5t132.5 142t50.5 208q0 127 -60.5 211t-183.5 117v4q49 8 86 36t62.5 65.5t38 84t12.5 93.5q0 109 -48.5 184.5t-125 122.5t-172 67.5t-187.5 20.5q-115 0 -213 -31t-171 -92 t-115 -151.5t-46 -210.5h326q-2 98 56.5 150t164.5 52q86 0 145.5 -36.5t59.5 -106.5q0 -45 -21.5 -75t-55.5 -46t-75 -22.5t-80 -6.5q-23 -2 -46 1t-46 1v-241q23 2 46.5 3t45.5 1q53 0 99.5 -8.5t80 -30t54 -59t20.5 -97.5q0 -47 -19 -79.5t-51 -54t-74 -32t-87 -10.5 q-262 0 -256 254h-326z" />
<glyph unicode="4" d="M63 317h625v-317h348v317h187v295h-187v815h-334l-639 -784v-326zM334 612l360 461h4v-461h-364z" />
<glyph unicode="5" d="M45 442q8 -129 55 -217t124 -142t179.5 -77.5t219.5 -23.5q125 0 231.5 32.5t185 99t123.5 166t45 230.5q0 111 -33.5 198t-96 146t-150.5 90t-199 31q-82 0 -153.5 -24.5t-124.5 -78.5h-5l54 261h633v294h-902l-139 -806h316q41 66 97 87t130 21q109 0 167 -65.5 t58 -169.5t-67.5 -167t-169.5 -63q-39 0 -80 12.5t-74 35t-54.5 55t-21.5 75.5h-348z" />
<glyph unicode="6" d="M76 705q0 -137 29.5 -267.5t97 -232t176 -162.5t266.5 -61q117 0 220.5 34.5t182 101t124 165t45.5 225.5q0 98 -36 183t-97.5 149.5t-146.5 101.5t-183 37q-51 0 -99.5 -7t-91.5 -24.5t-80 -46.5t-63 -74h-4q4 61 20.5 125t50 117t86 87t127.5 34q23 0 49.5 -4t51.5 -19 q25 -16 43 -41.5t28 -68.5h326q-16 98 -60 170.5t-109.5 121t-148.5 73t-180 24.5q-162 0 -279.5 -59.5t-194 -161t-113.5 -236t-37 -284.5zM424 485q0 49 16.5 92.5t46 76t70.5 51t90 18.5q119 0 181.5 -69.5t62.5 -170.5q0 -43 -17.5 -83t-49 -70.5t-75.5 -48t-100 -17.5 q-102 0 -163.5 64.5t-61.5 156.5z" />
<glyph unicode="7" d="M123 1112h684v-4q-16 -10 -49 -47t-74 -92.5t-84 -128t-80 -154.5q-49 -94 -83 -189.5t-56.5 -184.5t-33.5 -169t-15 -143h375q2 141 31.5 318.5t117.5 367.5q37 80 80 154.5t86 136t80 106.5t59 64v280h-1038v-315z" />
<glyph unicode="8" d="M59 420q0 -125 52.5 -209t137.5 -135t190.5 -72.5t209.5 -21.5q106 0 211 24.5t187.5 76.5t134 135t51.5 202q0 135 -73 224t-195 114v4q49 10 88 38.5t66.5 67.5t42 86t14.5 97q0 106 -48.5 181t-123 123t-168 69.5t-185.5 21.5q-90 0 -184 -21.5t-171 -68.5t-126 -122 t-49 -181q0 -104 54 -185.5t159 -105.5v-4q-61 -10 -111.5 -41t-87.5 -76t-56.5 -102.5t-19.5 -118.5zM408 438q0 53 20.5 91t54 63.5t76.5 38t90 12.5q98 0 167 -53t69 -152q0 -55 -20.5 -93t-54.5 -61.5t-76 -34.5t-87 -11t-89 11t-76.5 35.5t-53 62.5t-20.5 91zM430 1026 q0 45 17.5 76t48 50t69.5 28.5t82 9.5t82 -9.5t69.5 -28.5t49 -51t18.5 -75q0 -45 -19.5 -78t-51 -52t-70.5 -28.5t-78 -9.5t-78 8t-69.5 27.5t-50 52.5t-19.5 80z" />
<glyph unicode="9" d="M76 932q0 -104 34.5 -193.5t98 -154t150.5 -101.5t194 -37q92 0 182 36t137 118h5q-2 -70 -17.5 -135.5t-47.5 -116.5t-80 -80.5t-120 -29.5q-33 0 -64.5 8t-58 24.5t-45 41t-24.5 59.5h-326q37 -199 169 -294t329 -95q170 0 288.5 61t193.5 166.5t109 245t34 293.5 q0 143 -35 270t-106.5 222t-184.5 150.5t-268 55.5q-111 0 -210.5 -38t-174 -105.5t-118.5 -161.5t-44 -209zM401 940q0 45 17.5 85t47.5 70.5t72 49t91 18.5q113 0 176 -65.5t63 -161.5q0 -49 -16 -91t-47 -74t-75 -50.5t-99 -18.5q-109 0 -169.5 69t-60.5 169z" />
<glyph unicode=":" horiz-adv-x="647" d="M133 0h381v381h-381v-381zM133 682h381v381h-381v-381z" />
<glyph unicode=";" horiz-adv-x="647" d="M133 0h168q-10 -80 -47 -125t-121 -68v-163q57 6 124 27.5t124 67.5t95 119.5t38 184.5v338h-381v-381zM133 682h381v381h-381v-381z" />
<glyph unicode="&#x37e;" horiz-adv-x="647" d="M133 0h168q-10 -80 -47 -125t-121 -68v-163q57 6 124 27.5t124 67.5t95 119.5t38 184.5v338h-381v-381zM133 682h381v381h-381v-381z" />
<glyph unicode="&#x3c;" horiz-adv-x="1228" d="M94 373l1041 -389v315l-629 217v4l629 217v316l-1041 -389v-291z" />
<glyph unicode="=" horiz-adv-x="1228" d="M98 117h1032v295h-1032v-295zM98 625h1032v295h-1032v-295z" />
<glyph unicode="&#x3e;" horiz-adv-x="1228" d="M94 -16l1041 389v291l-1041 389v-316l629 -217v-4l-629 -217v-315z" />
<glyph unicode="?" horiz-adv-x="1175" d="M63 983h359v39q4 82 47 129t129 47q55 0 94 -32.5t39 -92.5q0 -39 -13 -66.5t-37 -51t-53.5 -43t-60.5 -42.5q-29 -20 -58.5 -44.5t-53 -58.5t-39 -78t-15.5 -103v-103h324q0 47 6 78t21.5 54.5t42 44t65.5 47.5q59 37 105.5 70.5t79 75.5t50 95t17.5 127q0 106 -44 184 t-115.5 130.5t-164 78t-188.5 25.5q-119 0 -217 -34t-169 -99.5t-110 -160.5t-41 -216zM373 0h381v381h-381v-381z" />
<glyph unicode="@" horiz-adv-x="1638" d="M72 729q0 -166 62.5 -306t171 -240.5t252.5 -157t308 -56.5q188 0 341 79t263 231h-200q-76 -57 -173.5 -89t-213.5 -32q-129 0 -238.5 39t-187.5 112.5t-122 179t-44 240.5q0 127 39 232.5t111.5 181.5t176 119t230.5 43q117 0 215 -32t170 -93.5t111.5 -154.5 t39.5 -216q0 -82 -17 -141.5t-45 -97.5t-61.5 -55t-66.5 -17q-14 0 -20.5 12t-5.5 30.5t5.5 38t6.5 31.5l90 488h-193l-18 -99q-47 63 -110.5 91t-141.5 28q-94 0 -170 -39t-129 -104.5t-83 -149.5t-30 -174q0 -76 28 -143.5t75 -117.5t108.5 -79.5t126.5 -29.5 q70 0 118 30.5t79 71.5h4q2 -49 36 -74.5t91 -25.5q31 0 80 11t105.5 37.5t113.5 70.5t103 110t75 156t29 206q0 141 -60.5 256t-161 196t-228.5 124t-263 43q-162 0 -304 -58.5t-248.5 -161t-168 -241.5t-61.5 -303zM635 684q0 41 15.5 79t42 67.5t63.5 48t82 18.5 q74 0 117.5 -46t43.5 -120q0 -88 -56 -151.5t-152 -63.5q-76 0 -116 48t-40 120z" />
<glyph unicode="A" horiz-adv-x="1441" d="M-18 0h391l92 262h510l90 -262h397l-547 1462h-387zM553 545l166 512h4l162 -512h-332z" />
<glyph unicode="B" horiz-adv-x="1478" d="M131 0h703q117 0 221 22.5t181 75t122 139.5t45 218q0 125 -67.5 218t-184.5 128q86 43 139 119.5t53 175.5q0 115 -47 186.5t-122.5 112.5t-169.5 55q-82 13 -165 13l-24 -1h-684v-1462zM512 305v336h305q86 0 145.5 -38t59.5 -134q0 -90 -57.5 -127t-147.5 -37h-305z M512 887v280h295q59 0 107.5 -30.5t48.5 -110.5q0 -39 -15.5 -65.5t-38 -43t-50.5 -23.5t-52 -7h-295z" />
<glyph unicode="C" horiz-adv-x="1554" d="M86 731q0 -160 52 -298t147.5 -241.5t229.5 -163t300 -59.5q139 0 258 41t207 118t141.5 187.5t61.5 251.5h-381q-10 -127 -85 -198.5t-210 -71.5q-92 0 -156.5 37t-105.5 98.5t-59.5 139t-18.5 159.5t18.5 160t59.5 139.5t105.5 98t156.5 36.5q121 0 199.5 -57 t95.5 -168h381q-4 133 -64.5 235.5t-155 173t-212 107.5t-236.5 37q-166 0 -300 -59.5t-229.5 -163t-147.5 -241.5t-52 -298z" />
<glyph unicode="D" horiz-adv-x="1554" d="M131 0h629q166 0 299 48t226 141.5t142.5 230.5t49.5 317q0 170 -49.5 304.5t-141.5 228.5t-225 143t-301 49h-629v-1462zM512 328v807h180q197 0 300.5 -97.5t103.5 -298.5q0 -111 -22.5 -187.5t-71 -125.5t-125 -72.5t-185.5 -25.5h-180z" />
<glyph unicode="E" horiz-adv-x="1402" d="M131 0h1186v328h-805v278h717v295h-717v256h784v305h-1165v-1462z" />
<glyph unicode="F" horiz-adv-x="1251" d="M131 0h381v563h602v295h-602v299h696v305h-1077v-1462z" />
<glyph unicode="G" horiz-adv-x="1593" d="M76 731q0 -160 52 -298t147.5 -241.5t229.5 -163t300 -59.5q51 0 106.5 10.5t109.5 33t104.5 58t86.5 89.5l23 -160h246v801h-615v-283h267q-16 -100 -105.5 -160.5t-230.5 -60.5q-92 0 -157 37t-105.5 98.5t-59 139t-18.5 159.5t18.5 160t59 139.5t105.5 98t157 36.5 q117 0 197.5 -53t90.5 -147h381q-12 137 -74.5 237.5t-154.5 165t-204.5 95t-227.5 30.5q-166 0 -300 -59.5t-229.5 -163t-147.5 -241.5t-52 -298z" />
<glyph unicode="H" horiz-adv-x="1517" d="M127 0h381v602h502v-602h381v1462h-381v-532h-502v532h-381v-1462z" />
<glyph unicode="I" horiz-adv-x="645" d="M131 0h381v1462h-381v-1462z" />
<glyph unicode="J" horiz-adv-x="1214" d="M57 518q0 -123 26 -223t85 -173t157.5 -113t243.5 -40q512 0 512 494v999h-381v-975q0 -106 -35.5 -148t-101.5 -42q-72 0 -109.5 39t-37.5 110v136h-359v-64z" />
<glyph unicode="K" horiz-adv-x="1517" d="M131 0h381v451l156 163l393 -614h473l-608 887l540 575h-473l-481 -561v561h-381v-1462z" />
<glyph unicode="L" horiz-adv-x="1251" d="M131 0h1063v328h-682v1134h-381v-1462z" />
<glyph unicode="M" horiz-adv-x="1896" d="M133 0h359v1110h4l307 -1110h291l307 1110h4v-1110h358v1462h-561l-252 -975h-4l-252 975h-561v-1462z" />
<glyph unicode="N" horiz-adv-x="1517" d="M127 0h358v911h4l508 -911h392v1462h-359v-901h-4l-508 901h-391v-1462z" />
<glyph unicode="O" horiz-adv-x="1593" d="M76 731q0 -160 48 -298t140 -241.5t226.5 -163t306.5 -59.5t306 59.5t226 163t140.5 241.5t48.5 298t-48.5 298t-140.5 241.5t-226 163t-306 59.5t-306.5 -59.5t-226.5 -163t-140 -241.5t-48 -298zM457 731q0 82 18.5 160t59 139.5t105.5 98t157 36.5t156.5 -36.5 t105.5 -98t59.5 -139.5t18.5 -160t-18.5 -159.5t-59.5 -139t-105.5 -98.5t-156.5 -37t-157 37t-105.5 98.5t-59 139t-18.5 159.5z" />
<glyph unicode="P" horiz-adv-x="1402" d="M131 0h381v487h313q121 0 218.5 28t167 88.5t106.5 156.5t37 231q0 129 -44 219t-118 146.5t-169 81t-198 24.5h-694v-1462zM512 782v375h256q88 0 146.5 -44t58.5 -148q0 -100 -57.5 -141.5t-147.5 -41.5h-256z" />
<glyph unicode="Q" horiz-adv-x="1593" d="M76 731q0 -160 48 -298t140 -241.5t226.5 -163t306.5 -59.5q193 0 340 76l200 -197l174 181l-176 170q90 104 136.5 239t46.5 293q0 160 -48.5 298t-140.5 241.5t-226 163t-306 59.5t-306.5 -59.5t-226.5 -163t-140 -241.5t-48 -298zM457 731q0 82 18.5 160t59 139.5 t105.5 98t157 36.5t156.5 -36.5t105.5 -98t59.5 -139.5t18.5 -160q0 -74 -15.5 -144.5t-50.5 -129.5l-143 139l-170 -178l114 -113q-31 -8 -75 -8q-92 0 -157 37t-105.5 98.5t-59 139t-18.5 159.5z" />
<glyph unicode="R" horiz-adv-x="1478" d="M131 0h381v532h289q68 0 107.5 -25.5t62 -68.5t31 -96t12.5 -109q2 -14 4 -45.5t7 -67.5t12 -69t20 -51h377q-18 20 -30.5 65.5t-19 96.5t-8.5 98t-4 70q-4 53 -16.5 108.5t-37 104.5t-62 86t-97.5 51v4q117 45 173.5 146.5t56.5 220.5q0 111 -44.5 188.5t-116 127.5 t-163.5 72.5t-188 22.5h-746v-1462zM512 827v330h303q80 0 136.5 -38t56.5 -120q0 -84 -45 -128t-132 -44h-319z" />
<glyph unicode="S" horiz-adv-x="1366" d="M47 492q0 -141 52.5 -239.5t140.5 -162t202.5 -92.5t239.5 -29q121 0 235.5 24.5t203.5 81t143.5 150.5t54.5 234q0 98 -37 168.5t-96.5 119t-135 80t-155.5 54t-155.5 40t-136 37t-96.5 46t-36 69.5q0 37 17.5 60.5t44 38t59.5 20.5t63 6q43 0 87 -9t78 -29.5 t53.5 -54.5t17.5 -83h381q0 123 -51.5 212t-133 146.5t-187 85t-214.5 27.5q-102 0 -208.5 -24.5t-192.5 -78t-140.5 -137.5t-54.5 -204q0 -100 38 -171t98.5 -119t137 -79t154.5 -53q80 -23 155 -40.5t134 -40t95 -53t36 -79.5q0 -41 -20.5 -70t-53.5 -46t-74.5 -25.5 t-84.5 -8.5q-123 0 -197 49t-80 179h-381z" />
<glyph unicode="T" horiz-adv-x="1327" d="M37 1135h436v-1135h381v1135h436v327h-1253v-327z" />
<glyph unicode="U" horiz-adv-x="1517" d="M121 604q0 -317 152.5 -476t484.5 -159t484.5 159t152.5 476v858h-381v-880q0 -141 -57.5 -213t-198.5 -72t-198.5 71.5t-57.5 213.5v880h-381v-858z" />
<glyph unicode="V" horiz-adv-x="1327" d="M-23 1462l461 -1462h439l473 1462h-398l-286 -1087h-4l-287 1087h-398z" />
<glyph unicode="W" horiz-adv-x="1972" d="M0 1462l395 -1462h387l201 1008h4l201 -1008h381l403 1462h-381l-207 -1069h-4l-215 1069h-358l-215 -1069h-4l-207 1069h-381z" />
<glyph unicode="X" horiz-adv-x="1441" d="M-16 0h438l299 487l274 -487h463l-516 768l473 694h-434l-260 -454l-246 454h-448l477 -694z" />
<glyph unicode="Y" horiz-adv-x="1366" d="M-39 1462l533 -917v-545h380v545l533 917h-432l-291 -594l-291 594h-432z" />
<glyph unicode="Z" horiz-adv-x="1366" d="M49 0h1268v328h-795l768 839v295h-1196v-327h705l-750 -824v-311z" />
<glyph unicode="[" horiz-adv-x="757" d="M141 -356h602v295h-276v1259h276v295h-602v-1849z" />
<glyph unicode="\" horiz-adv-x="833" d="M-18 1493l550 -1524h320l-551 1524h-319z" />
<glyph unicode="]" horiz-adv-x="757" d="M14 -61v-295h602v1849h-602v-295h277v-1259h-277z" />
<glyph unicode="^" horiz-adv-x="1228" d="M96 680h326l192 487l191 -487h328l-332 747h-373z" />
<glyph unicode="_" horiz-adv-x="1024" d="M0 -154v-102h1024v102h-1024z" />
<glyph unicode="`" horiz-adv-x="606" d="M-72 1483l322 -305h246l-199 305h-369z" />
<glyph unicode="a" horiz-adv-x="1214" d="M59 291q0 -82 28 -142.5t77 -100.5t115.5 -59.5t142.5 -19.5q96 0 189.5 30t160.5 101q4 -27 7 -51t14 -49h350q-31 63 -36 134t-5 138v465q0 113 -42 182.5t-111.5 108.5t-159 52.5t-183.5 13.5q-92 0 -179 -16.5t-158.5 -57.5t-117 -110.5t-49.5 -174.5h326 q25 133 174 133q27 0 56.5 -6t54 -19.5t41 -34t16.5 -50.5q0 -49 -23.5 -68.5t-68.5 -30.5q-59 -12 -129 -20t-138.5 -20.5t-132 -33t-112.5 -57t-78 -94t-29 -143.5zM408 305q0 63 42 92t101 43q57 16 117.5 25.5t97.5 32.5q1 -19 1 -37q0 -137 -42 -203q-47 -74 -172 -74 q-59 0 -102 27.5t-43 93.5z" />
<glyph unicode="b" d="M117 0h332v123h4q104 -154 292 -154q125 0 215.5 49.5t147.5 131t85 187t28 218.5q0 104 -28 200.5t-84 172.5t-140 121t-197 45q-195 0 -303 -148h-4v516h-348v-1462zM453 543q0 82 20.5 137t51 88t68.5 46t73 13q57 0 97 -25.5t64.5 -66.5t34.5 -91t10 -101 q0 -55 -10 -109.5t-34.5 -98.5t-64.5 -71.5t-99 -27.5q-119 0 -165 84t-46 223z" />
<glyph unicode="c" horiz-adv-x="1214" d="M66 514q0 -123 42 -223.5t116.5 -172t177 -110.5t221.5 -39q106 0 198 30t163 87t116 141t57 191h-338q-12 -86 -59 -134t-139 -48q-55 0 -94.5 24.5t-65 63t-36.5 89t-11 101.5q0 55 8 111.5t31.5 100.5t67.5 72.5t118 28.5q33 0 63.5 -11t54 -31.5t38 -48t14.5 -62.5 h338q-8 104 -54 183t-118 131t-163 79t-189 27q-129 0 -231.5 -43t-175.5 -120t-111.5 -183.5t-38.5 -233.5z" />
<glyph unicode="d" d="M66 555q0 -113 27.5 -218.5t85 -187t147.5 -131t215 -49.5q188 0 293 154h4v-123h331v1462h-348v-514h-4q-109 145 -303 146q-113 0 -197 -45t-140 -121t-83.5 -172.5t-27.5 -200.5zM414 543q0 51 11 101t35.5 91t65.5 66.5t101 25.5q57 0 96 -24.5t63.5 -65.5t36 -94 t11.5 -111q0 -51 -8.5 -103t-32 -95t-63.5 -70.5t-103 -27.5q-59 0 -100.5 27.5t-66 71.5t-35.5 98.5t-11 109.5z" />
<glyph unicode="e" horiz-adv-x="1251" d="M66 535q0 -133 42 -239t118.5 -178.5t184 -110.5t236.5 -38q90 0 174 20.5t155 63.5t123 109.5t77 159.5h-326q-25 -59 -80 -88t-119 -29q-111 0 -172 65.5t-65 175.5h780q1 21 1 43q0 112 -28 210q-33 118 -102.5 206t-176 138.5t-249.5 50.5q-117 0 -221.5 -42 t-183 -116t-123.5 -176t-45 -225zM414 641q16 98 74.5 157.5t150.5 59.5q88 0 145.5 -63.5t61.5 -153.5h-432z" />
<glyph unicode="f" horiz-adv-x="757" d="M25 838h168v-838h348v838h209v225h-209v47q0 72 34.5 89.5t94.5 17.5q45 0 94 -7v246q-41 2 -84 4t-84 2q-111 0 -188.5 -19.5t-124.5 -65.5t-68.5 -122.5t-21.5 -191.5h-168v-225z" />
<glyph unicode="g" horiz-adv-x="1251" d="M55 573q0 -113 28 -209t85 -166.5t145 -111.5t209 -41q86 0 161 41t122 115h4v-101q0 -49 -5 -94t-23.5 -78.5t-55.5 -54t-98 -20.5q-84 0 -127 22q-47 25 -60 92h-348q16 -106 64.5 -172.5t119 -103.5t158.5 -50.5t180 -13.5q186 0 293 54.5t159 132t65.5 163.5 t13.5 152v934h-334v-133h-4q-92 164 -285 164q-113 0 -199.5 -42t-146 -113t-90.5 -165.5t-31 -200.5zM403 561q0 49 10.5 97.5t34 85t62.5 60t96 23.5q59 0 99 -22.5t65 -60t35 -86t10 -99.5q0 -49 -12 -94t-38 -79t-66 -54.5t-95 -20.5q-53 0 -91 21.5t-62.5 56.5t-36 80 t-11.5 92z" />
<glyph unicode="h" d="M117 0h348v580q0 43 11 84t33.5 72.5t58.5 51t85 19.5q72 0 108 -25.5t51 -66.5t15 -94v-107v-514h349v682q0 57 -10.5 129t-48.5 134.5t-114.5 105.5t-209.5 43q-47 0 -96.5 -12.5t-93.5 -35t-79 -55.5t-55 -73h-4v544h-348v-1462z" />
<glyph unicode="i" horiz-adv-x="606" d="M129 0h348v1063h-348v-1063zM129 1196h348v266h-348v-266z" />
<glyph unicode="j" horiz-adv-x="606" d="M-51 -74v-282h176q92 0 158.5 18.5t109.5 59t63.5 109.5t20.5 169v1063h-348v-1038q0 -57 -28.5 -77t-82.5 -22h-69zM129 1196h348v266h-348v-266z" />
<glyph unicode="k" horiz-adv-x="1214" d="M117 0h348v340l90 88l260 -428h420l-438 662l389 401h-404l-317 -354v753h-348v-1462z" />
<glyph unicode="l" horiz-adv-x="606" d="M129 0h348v1462h-348v-1462z" />
<glyph unicode="m" horiz-adv-x="1896" d="M117 0h348v518q0 82 10 137.5t31.5 89t55.5 48t81 14.5q72 0 101.5 -54.5t29.5 -148.5v-604h348v520q0 66 4 118t21.5 90t50.5 58.5t88 20.5q68 0 107 -48t39 -134v-625h348v635q0 76 -11.5 156.5t-49.5 148.5t-112.5 111t-201.5 43q-109 0 -188.5 -43t-143.5 -129 q-43 96 -126 134t-183 38q-98 0 -178 -48.5t-127 -127.5h-4v145h-338v-1063z" />
<glyph unicode="n" d="M117 0h348v580q0 43 11 84t33.5 72.5t58.5 51t85 19.5q72 0 108 -25.5t51 -66.5t15 -94v-107v-514h349v682q0 57 -10.5 129t-48.5 134.5t-114.5 105.5t-209.5 43q-47 0 -96.5 -12.5t-94.5 -35t-82 -55.5t-61 -73h-4v145h-338v-1063z" />
<glyph unicode="o" horiz-adv-x="1251" d="M66 530q0 -119 40.5 -222t114.5 -178t177.5 -118t226.5 -43t226 43t178 118t116 178.5t41 221.5q0 121 -41 223.5t-116 178.5t-178 119t-226 43t-226.5 -43t-177.5 -119t-114.5 -178.5t-40.5 -223.5zM414 530q0 51 10 103.5t34.5 95.5t64.5 70.5t102 27.5q61 0 102 -27.5 t65.5 -70.5t35 -95t10.5 -104q0 -51 -10.5 -103t-35 -95t-65.5 -69.5t-102 -26.5t-101.5 26.5t-65 69.5t-34.5 95t-10 103z" />
<glyph unicode="p" d="M117 -356h348v471h4q109 -145 303 -146q113 0 197 45t140 121t84 172t28 201q0 113 -28 218t-85 187t-147.5 131.5t-215.5 49.5q-188 0 -292 -154h-4v123h-332v-1419zM453 543q0 82 20.5 137t51 88t68.5 46t73 13q57 0 97 -25.5t64.5 -66.5t34.5 -91t10 -101 q0 -55 -10 -109.5t-34.5 -98.5t-64.5 -71.5t-99 -27.5q-119 0 -165 84t-46 223z" />
<glyph unicode="q" d="M66 508q0 -104 27.5 -200.5t83.5 -172.5t140 -121t197 -45q197 0 303 148h4v-473h348v1419h-331v-123h-4q-104 154 -293 154q-125 0 -215 -49.5t-147.5 -131.5t-85 -187t-27.5 -218zM414 520q0 55 11 109.5t35.5 98.5t65.5 71.5t101 27.5q61 0 102 -27.5t63.5 -71.5 t32 -98.5t9.5 -107.5q0 -82 -20.5 -137t-51.5 -89t-69 -47t-72 -13q-57 0 -97.5 25.5t-65 66.5t-34.5 91t-10 101z" />
<glyph unicode="r" horiz-adv-x="872" d="M129 0h348v526q0 49 16.5 95.5t50.5 81t83 55t112 20.5q35 0 67 -5t66 -15v317q-20 4 -40.5 6t-40.5 2q-113 0 -197 -52t-123 -154h-4v186h-338v-1063z" />
<glyph unicode="s" horiz-adv-x="1138" d="M55 350q4 -111 50.5 -184.5t119 -117.5t164.5 -61.5t186 -17.5q90 0 181.5 19.5t164 63.5t118.5 117t46 179q0 33 -12 76t-43 85t-83 75.5t-132 50.5q-59 12 -129 24.5t-128 27.5t-97 40t-39 61q0 29 15.5 44.5t38 23.5t49 10t46.5 2q70 0 111 -26q45 -29 45 -92h322 q-4 104 -48.5 170.5t-114 104.5t-154.5 53.5t-173 15.5q-78 0 -164 -15.5t-157.5 -52.5t-117.5 -99.5t-46 -158.5q0 -106 46 -166.5t118.5 -94.5t159.5 -50.5t169 -36.5q23 -6 52.5 -12.5t56 -18.5t44 -31.5t17.5 -50.5t-16 -52.5t-41 -34.5t-53.5 -19t-53.5 -6 q-37 0 -70.5 9t-58.5 27q-27 20 -42 49t-15 70h-332z" />
<glyph unicode="t" horiz-adv-x="796" d="M18 838h177v-473q0 -109 16 -180.5t58 -114.5t115 -61.5t183 -18.5q47 0 95.5 4t95.5 6v256q-23 0 -45.5 -2t-44.5 -2q-57 0 -91 19.5t-34 82.5v484h215v225h-215v321h-348v-321h-177v-225z" />
<glyph unicode="u" d="M115 424q0 -104 18.5 -188t63.5 -143.5t120.5 -91.5t190.5 -32q92 0 183 47t140 129h5v-145h338v1063h-349v-569q0 -70 -19.5 -116t-48 -74t-61 -38t-61.5 -10q-84 0 -128 42t-44 148v617h-348v-639z" />
<glyph unicode="v" horiz-adv-x="1099" d="M-6 1063l354 -1063h402l356 1063h-354l-197 -703h-4l-195 703h-362z" />
<glyph unicode="w" horiz-adv-x="1705" d="M0 1063l332 -1063h352l166 707h4l168 -707h352l332 1063h-354l-174 -686h-4l-156 686h-332l-151 -688h-5l-178 688h-352z" />
<glyph unicode="x" horiz-adv-x="1099" d="M-14 0h385l174 307l184 -307h385l-377 563l332 500h-369l-149 -254l-150 254h-385l338 -506z" />
<glyph unicode="y" horiz-adv-x="1099" d="M-14 1063l274 -739q8 -20 22.5 -59.5t29 -80.5t25.5 -78.5t11 -60.5q0 -55 -40 -87t-99 -32h-121v-282h164q88 0 156.5 8t122 35.5t94.5 79t71 139.5l420 1157h-356l-201 -692h-4l-201 692h-368z" />
<glyph unicode="z" horiz-adv-x="1099" d="M45 0h1012v266h-570l531 533v264h-930v-266h487l-530 -527v-270z" />
<glyph unicode="{" horiz-adv-x="757" d="M29 444q18 0 49 -4t60.5 -19t51 -43t21.5 -77v-354q0 -82 21.5 -139.5t59.5 -94.5t88 -53t107 -16h242v245h-84q-37 0 -59.5 13.5t-32.5 33t-13 43t-3 44.5v337q0 74 -26 116t-61.5 63.5t-75.5 27.5t-73 8v7q33 2 73 10t75.5 29.5t61.5 59.5t26 97v336q0 20 3 44t13 43.5 t32.5 32.5t59.5 13h84v246h-242q-57 0 -107 -14.5t-88 -49t-59.5 -90t-21.5 -139.5v-385q0 -43 -21.5 -67.5t-51 -37t-60.5 -16.5t-49 -4v-246z" />
<glyph unicode="|" horiz-adv-x="454" d="M80 -31h295v1524h-295v-1524z" />
<glyph unicode="}" horiz-adv-x="757" d="M29 -111v-245h241q57 0 107.5 16t88.5 53t59.5 94.5t21.5 139.5v354q0 49 21.5 77t51 43t60.5 19t49 4v246q-18 0 -49 4t-60.5 16.5t-51 37t-21.5 67.5v385q0 84 -21.5 139.5t-59.5 90t-88 49t-108 14.5h-241v-246h84q37 0 59.5 -13t32.5 -32.5t13 -43t3 -44.5v-336 q0 -59 25.5 -97t61.5 -59.5t76 -29.5t73 -10v-7q-33 -2 -73 -8t-76 -27.5t-61.5 -63.5t-25.5 -116v-337q0 -20 -3 -44t-13 -43.5t-32.5 -33t-59.5 -13.5h-84z" />
<glyph unicode="~" horiz-adv-x="1228" d="M141 559l74 -266q12 27 27.5 53.5t37 47t48 33.5t59.5 13q72 0 129 -21.5t107 -49.5q51 -29 101 -48.5t107 -19.5q47 0 85 15.5t68 40t55.5 56t47.5 64.5l-73 266l-37 -53q-18 -27 -40 -47t-47.5 -33.5t-55.5 -13.5q-41 0 -96.5 24.5t-112.5 49.5q-59 27 -116.5 46 t-111.5 19q-51 0 -91 -15t-70.5 -40t-54.5 -56.5t-40 -64.5z" />
<glyph unicode="&#xa1;" horiz-adv-x="606" d="M113 739h381v381h-381v-381zM125 20v-362h358v362l-94 617h-170z" />
<glyph unicode="&#xa2;" d="M100 514q0 -117 38 -213t105.5 -167t162 -112.5t206.5 -48.5v-188h95v188q96 6 180 39t147.5 89.5t104.5 136t53 180.5h-338q-10 -72 -46 -118t-101 -58v579q55 -8 95 -48t42 -99h338q-8 98 -50 174t-106.5 128t-146.5 80.5t-172 35.5v161h-95v-161q-119 -8 -214 -54.5 t-160.5 -122t-101.5 -178t-36 -223.5zM449 514q0 49 6 98.5t23.5 92.5t49 73.5t84.5 42.5v-579q-43 10 -74.5 35.5t-51 63.5t-28.5 83t-9 90z" />
<glyph unicode="&#xa3;" d="M84 614h217q14 -29 20.5 -64.5t6.5 -68.5q0 -47 -21.5 -92t-53.5 -84t-72 -70.5t-77 -56.5l140 -209q47 31 102 55.5t115 24.5q55 0 111.5 -12t111.5 -27.5t108.5 -28t104.5 -12.5q94 0 181 28t175 118l-141 252q-41 -47 -79 -70t-103 -23q-59 0 -124 19.5t-118 19.5 q-41 0 -81 -8t-72 -31l-5 5q78 59 110 121.5t32 127.5q0 45 -15 86h183v215h-244q-12 16 -26.5 43t-27 56.5t-20.5 58.5t-8 49q0 80 50 121t128 41q47 0 80 -18.5t52.5 -48t27.5 -67.5t6 -79h338q4 127 -33 221t-107.5 159t-170 96.5t-219.5 31.5q-98 0 -193.5 -25.5 t-170.5 -78t-122 -134t-47 -194.5q0 -63 26.5 -123.5t61.5 -108.5h-137v-215z" />
<glyph unicode="&#xa4;" d="M102 717q0 -92 28 -173t79 -149l-90 -92l123 -123l92 92q66 -47 144.5 -72.5t166.5 -25.5q92 0 172 27.5t146 77.5l90 -91l123 123l-91 90q47 66 75 146t28 170t-27.5 170t-75.5 145l91 90l-123 123l-88 -90q-66 49 -147 77t-173 28t-173 -28t-146 -77l-93 90l-122 -123 l92 -90q-47 -70 -74 -148.5t-27 -166.5zM397 717q0 61 19.5 112.5t53.5 88t79 56t96 19.5t96 -19.5t79 -56t53.5 -88t19.5 -112.5t-19.5 -112.5t-53.5 -88.5t-79 -56.5t-96 -19.5t-96 19.5t-79 56.5t-53.5 88.5t-19.5 112.5z" />
<glyph unicode="&#xa5;" d="M0 1462l307 -616h-213v-215h320l41 -84v-64h-361v-215h361v-268h381v268h360v215h-360v64l41 84h319v215h-211l305 616h-381l-262 -616h-4l-262 616h-381z" />
<glyph unicode="&#xa6;" horiz-adv-x="454" d="M80 -31h295v574h-295v-574zM80 920h295v573h-295v-573z" />
<glyph unicode="&#xa7;" d="M72 621q0 -96 53 -165t132 -119t171 -88t171 -74t132 -75t53 -90q0 -59 -41 -93t-102 -34q-76 0 -123 41q-23 23 -37 52.5t-14 68.5h-301q0 -113 38 -191.5t102.5 -129t152.5 -74t188 -23.5q90 0 173 22.5t148.5 71t104.5 121t39 170.5q0 139 -102 226 q102 29 156.5 115.5t54.5 191.5q0 106 -55.5 167.5t-139.5 110.5l-340 166q-23 10 -48.5 23.5t-48 30t-37.5 38t-15 49.5q0 53 38.5 80t86.5 27q70 0 108 -37q43 -39 43 -106h301q-2 100 -38 174.5t-97 125t-144 75t-178 24.5q-76 0 -155.5 -21.5t-145 -66.5t-106.5 -111.5 t-41 -156.5q0 -63 18.5 -110.5t59.5 -94.5q-100 -39 -157.5 -116.5t-57.5 -194.5zM367 674q2 27 12 48t28.5 33.5t45.5 12.5t57 -16l309 -144q72 -39 94.5 -82t1.5 -84q-8 -23 -33.5 -40t-47.5 -23l-383 184q-37 23 -62.5 46.5t-21.5 64.5z" />
<glyph unicode="&#xa8;" horiz-adv-x="606" d="M-68 1206h308v256h-308v-256zM369 1206h307v256h-307v-256z" />
<glyph unicode="&#xa9;" horiz-adv-x="1638" d="M29 731q0 -180 65.5 -322.5t176 -239.5t253 -148.5t295.5 -51.5q154 0 296 51.5t252 148.5t176.5 239.5t66.5 322.5q0 182 -66.5 323.5t-176.5 239t-252 148.5t-296 51t-296 -51t-252.5 -148.5t-176 -239t-65.5 -323.5zM285 731q0 125 42 229.5t114.5 179t170 116.5 t207.5 42q109 0 206 -42t170 -116.5t116 -179t43 -229.5t-43 -229.5t-116 -179t-170 -116.5t-206 -42q-111 0 -208 42t-169.5 116.5t-114.5 179t-42 229.5zM424 737q0 -92 30.5 -172t86 -139t134.5 -93t175 -34q68 0 128 20.5t109.5 61.5t83 100.5t43.5 139.5h-192 q-4 -68 -52 -97.5t-120 -29.5q-84 0 -135 70.5t-51 176.5q0 111 47 176.5t135 65.5q61 0 111.5 -26.5t64.5 -92.5h184q-12 78 -44 136.5t-79 97.5t-107.5 59.5t-129.5 20.5q-98 0 -176 -34t-133.5 -92.5t-84 -139.5t-28.5 -175z" />
<glyph unicode="&#xaa;" horiz-adv-x="772" d="M0 915q0 -98 71.5 -145t194.5 -47q61 0 113 18q29 10 56.5 24.5t58.5 35.5q4 -31 14 -60h264q-20 57 -23.5 102.5t-3.5 86.5v284q0 74 -27.5 120t-76.5 71t-114.5 33t-141.5 8q-82 0 -142.5 -10.5t-107.5 -32.5q-47 -25 -75.5 -69t-30.5 -122h241q16 70 113 70 q35 0 72 -13.5t37 -41.5q0 -29 -15.5 -41t-44.5 -19q-76 -14 -150.5 -20t-138.5 -29q-61 -23 -102 -67t-41 -136zM256 948q0 39 27.5 56.5t66.5 25.5q37 8 70 14.5t69 20.5v-39q0 -139 -137 -139q-39 0 -67.5 15t-28.5 46z" />
<glyph unicode="&#xab;" horiz-adv-x="909" d="M92 397l326 -260v281l-176 135l176 137v281l-326 -262v-312zM492 397l325 -260v281l-176 135l176 137v281l-325 -262v-312z" />
<glyph unicode="&#xac;" horiz-adv-x="1228" d="M98 625h738v-379h294v674h-1032v-295z" />
<glyph unicode="&#xad;" horiz-adv-x="833" d="M98 410h637v295h-637v-295z" />
<glyph unicode="&#xae;" horiz-adv-x="1638" d="M29 731q0 -180 65.5 -322.5t176 -239.5t253 -148.5t295.5 -51.5q154 0 296 51.5t252 148.5t176.5 239.5t66.5 322.5q0 182 -66.5 323.5t-176.5 239t-252 148.5t-296 51t-296 -51t-252.5 -148.5t-176 -239t-65.5 -323.5zM285 731q0 125 42 229.5t114.5 179t170 116.5 t207.5 42q109 0 206 -42t170 -116.5t116 -179t43 -229.5t-43 -229.5t-116 -179t-170 -116.5t-206 -42q-111 0 -208 42t-169.5 116.5t-114.5 179t-42 229.5zM508 319h201v345h51l188 -345h195l-211 357q109 4 172 53t63 164q0 74 -24.5 122t-69.5 77.5t-109.5 41t-146.5 11.5 h-309v-826zM709 809v190h104q23 0 50.5 -2t50 -11t38 -25.5t15.5 -47.5q0 -66 -30 -85t-83 -19h-145z" />
<glyph unicode="&#xaf;" horiz-adv-x="606" d="M-29 1237h666v176h-666v-176z" />
<glyph unicode="&#xb0;" horiz-adv-x="819" d="M82 1118q0 -68 25.5 -127t70.5 -104t104.5 -70.5t127.5 -25.5t127 25.5t104 70.5t70.5 104.5t25.5 126.5q0 68 -25.5 127.5t-70.5 104.5t-104.5 70.5t-126.5 25.5q-68 0 -127.5 -25.5t-104.5 -70.5t-70.5 -104.5t-25.5 -127.5zM246 1118q0 76 44 129t120 53t119.5 -53 t43.5 -129t-44 -129t-119 -53q-76 0 -120 53t-44 129z" />
<glyph unicode="&#xb1;" horiz-adv-x="1228" d="M98 -25h1032v295h-1032v-295zM98 559h369v-207h295v207h368v295h-368v207h-295v-207h-369v-295z" />
<glyph unicode="&#xb2;" horiz-adv-x="774" d="M10 1079h256q2 70 32 121t108 51q51 0 82.5 -28.5t31.5 -77.5q0 -31 -33.5 -62.5t-87.5 -64.5q-53 -31 -117.5 -67t-123.5 -83q-70 -53 -108 -129.5t-38 -169.5h748v195h-398q20 35 58.5 57.5t103.5 55.5q53 27 98.5 53t80 60t54 76t19.5 97q0 72 -28.5 125t-79 88 t-119 52.5t-146.5 17.5q-102 0 -174.5 -26.5t-119.5 -73.5q-49 -47 -74 -115t-25 -152z" />
<glyph unicode="&#xb3;" horiz-adv-x="774" d="M10 842q10 -154 123 -222.5t285 -68.5q76 0 146.5 15.5t124.5 49t87 87t33 126.5q0 84 -39 134.5t-119 60.5v4q72 10 107 57.5t35 106.5q0 72 -32 120t-84 77.5t-120 43t-139 13.5q-168 0 -272.5 -76t-108.5 -233h256q-2 53 33.5 83.5t93.5 30.5q43 0 80 -21.5t37 -55.5 q0 -23 -14.5 -37.5t-35 -23.5t-44 -12t-42.5 -3q-14 0 -28.5 1t-30.5 1v-168q16 0 30.5 1t28.5 1q59 0 105.5 -21.5t46.5 -83.5q0 -20 -12.5 -35.5t-33 -25.5t-44 -16.5t-47.5 -6.5q-70 0 -111 37q-39 37 -39 107h-256v-47z" />
<glyph unicode="&#xb4;" horiz-adv-x="606" d="M92 1178h246l321 305h-368z" />
<glyph unicode="&#xb5;" d="M115 -356h348v338q18 -12 45 -13q92 0 183 47t140 129h5v-145h338v1063h-349v-569q0 -70 -19.5 -116t-48 -74t-61 -38t-61.5 -10q-84 0 -128 42t-44 148v617h-348v-1419z" />
<glyph unicode="&#x3bc;" d="M115 -356h348v338q18 -12 45 -13q92 0 183 47t140 129h5v-145h338v1063h-349v-569q0 -70 -19.5 -116t-48 -74t-61 -38t-61.5 -10q-84 0 -128 42t-44 148v617h-348v-1419z" />
<glyph unicode="&#xb6;" horiz-adv-x="1269" d="M-35 1098q0 -166 117 -258t340 -92v-1094h246v1624h198v-1624h246v1808h-643q-106 0 -198.5 -15t-160 -56t-106.5 -111.5t-39 -181.5z" />
<glyph unicode="&#xb7;" horiz-adv-x="645" d="M133 586q0 -39 15.5 -74t41 -60.5t60.5 -41t74 -15.5t73.5 15.5t60 41t41 60.5t15.5 74t-15.5 73.5t-41 60t-60.5 41t-73 15.5q-39 0 -74 -15.5t-60.5 -41t-41 -60t-15.5 -73.5z" />
<glyph unicode="&#x22c5;" horiz-adv-x="645" d="M133 586q0 -39 15.5 -74t41 -60.5t60.5 -41t74 -15.5t73.5 15.5t60 41t41 60.5t15.5 74t-15.5 73.5t-41 60t-60.5 41t-73 15.5q-39 0 -74 -15.5t-60.5 -41t-41 -60t-15.5 -73.5z" />
<glyph unicode="&#xb8;" horiz-adv-x="606" d="M59 -416q45 -20 109.5 -41.5t132.5 -21.5q53 0 101.5 10t84 33.5t56 61.5t20.5 93q0 45 -16.5 77t-42 51.5t-56 27.5t-59.5 8q-25 0 -43 -2t-39 -8l-4 4l82 123h-113l-116 -188l45 -39q20 6 39.5 10t42.5 4q88 0 88 -78q0 -39 -31 -57.5t-74 -14t-85 14.5t-83 24z" />
<glyph unicode="&#xb9;" horiz-adv-x="774" d="M111 1071h223v-502h256v858h-205q-2 -49 -27.5 -82.5t-63.5 -53t-86 -28t-97 -8.5v-184z" />
<glyph unicode="&#xba;" horiz-adv-x="792" d="M-4 1083q0 -162 105.5 -261t293.5 -99q190 0 296 99.5t106 260.5q0 164 -105.5 263.5t-296.5 99.5q-188 0 -293.5 -99.5t-105.5 -263.5zM252 1083q0 27 7 56.5t23.5 54.5t44 41t68.5 16q43 0 71 -16t44 -41t23.5 -54.5t7.5 -56.5t-7.5 -55.5t-23.5 -53t-44 -40.5t-71 -16 q-41 0 -68.5 16t-44 40.5t-23.5 53t-7 55.5z" />
<glyph unicode="&#xbb;" horiz-adv-x="909" d="M92 137l326 262v312l-326 260v-281l176 -135l-176 -137v-281zM492 137l325 262v312l-325 260v-281l176 -135l-176 -137v-281z" />
<glyph unicode="&#xbc;" horiz-adv-x="1935" d="M53 1071h223v-502h256v858h-204q-2 -49 -28 -82.5t-63.5 -53t-86 -28t-97.5 -8.5v-184zM408 -55h202l842 1538h-203zM1085 182h408v-182h258v182h131v185h-131v491h-250l-416 -473v-203zM1278 367l217 251v-251h-217z" />
<glyph unicode="&#xbd;" horiz-adv-x="1935" d="M31 1071h223v-502h256v858h-205q-2 -49 -27.5 -82.5t-63.5 -53t-86 -28t-97 -8.5v-184zM356 -55h203l842 1538h-203zM1139 510h256q2 70 31.5 121t107.5 51q51 0 83 -28.5t32 -78.5q0 -31 -34 -62.5t-87 -63.5q-53 -31 -117.5 -67t-124.5 -83q-70 -53 -107.5 -130 t-37.5 -169h747v195h-397q20 35 58 57t104 55q53 27 98 53.5t80 60.5t54.5 76t19.5 97q0 72 -29 125t-79 88t-118.5 52.5t-146.5 17.5q-102 0 -175 -27t-120 -74q-49 -47 -73.5 -114.5t-24.5 -151.5z" />
<glyph unicode="&#xbe;" horiz-adv-x="1935" d="M31 842q10 -154 122.5 -222.5t284.5 -68.5q76 0 146.5 15.5t125 49t87 87t32.5 126.5q0 84 -38.5 134.5t-118.5 60.5v4q72 10 106.5 57.5t34.5 106.5q0 72 -31.5 120t-84 77.5t-120 43t-139.5 13.5q-168 0 -272.5 -76t-108.5 -233h256q-2 53 34 83.5t93 30.5 q43 0 80 -21.5t37 -55.5q0 -25 -14.5 -40.5t-35 -24.5t-44 -12t-41.5 -3q-14 0 -28.5 1t-31.5 1v-168q16 0 31 1t29 1q29 0 56.5 -5t49 -16.5t33.5 -31t12 -48.5q0 -20 -12 -35.5t-32.5 -25.5t-44 -16.5t-48.5 -6.5q-70 0 -110 37q-39 37 -39 107h-256v-47zM518 -55h203 l842 1538h-203zM1108 182h408v-182h258v182h131v185h-131v491h-250l-416 -473v-203zM1300 367l218 251v-251h-218z" />
<glyph unicode="&#xbf;" horiz-adv-x="1175" d="M63 45q0 -106 44.5 -184t116 -130.5t163.5 -78t188 -25.5q121 0 218.5 34t168 99.5t109.5 160.5t41 216h-358v-39q-4 -82 -47 -129t-129 -47q-55 0 -94.5 33t-39.5 92q0 39 13.5 67.5t37 51t53.5 43t60 41.5q29 20 58.5 44.5t53 58.5t39 78t15.5 104v102h-323 q0 -45 -6.5 -77t-21.5 -55.5t-41 -44t-67 -46.5q-57 -37 -104 -71t-80 -76t-50.5 -95t-17.5 -127zM422 739h381v381h-381v-381z" />
<glyph unicode="&#xc0;" horiz-adv-x="1441" d="M-18 0h391l92 262h510l90 -262h397l-547 1462h-387zM553 545l166 512h4l162 -512h-332zM346 1858l322 -305h246l-199 305h-369z" />
<glyph unicode="&#xc1;" horiz-adv-x="1441" d="M-18 0h391l92 262h510l90 -262h397l-547 1462h-387zM553 545l166 512h4l162 -512h-332zM510 1553h246l321 305h-368z" />
<glyph unicode="&#xc2;" horiz-adv-x="1441" d="M-18 0h391l92 262h510l90 -262h397l-547 1462h-387zM553 545l166 512h4l162 -512h-332zM336 1553h262l123 163l123 -163h262l-229 305h-312z" />
<glyph unicode="&#xc3;" horiz-adv-x="1441" d="M-18 0h391l92 262h510l90 -262h397l-547 1462h-387zM553 545l166 512h4l162 -512h-332zM334 1559h145q6 35 31 63.5t60 28.5q29 0 61.5 -11.5t69 -25.5t77.5 -25.5t89 -11.5q59 0 101 21.5t71.5 56.5t47 83t23.5 99h-145q-4 -31 -27.5 -57.5t-58.5 -26.5 q-25 0 -59.5 13.5t-73.5 29.5q-41 16 -82 28.5t-82 12.5q-55 0 -98 -24.5t-74 -64.5t-50.5 -90t-25.5 -99z" />
<glyph unicode="&#xc4;" horiz-adv-x="1441" d="M-18 0h391l92 262h510l90 -262h397l-547 1462h-387zM553 545l166 512h4l162 -512h-332zM350 1581h308v256h-308v-256zM787 1581h307v256h-307v-256z" />
<glyph unicode="&#xc5;" horiz-adv-x="1441" d="M-18 0h391l92 262h510l90 -262h397l-547 1462h-387zM553 545l166 512h4l162 -512h-332zM502 1728q0 -43 17.5 -83t47 -70.5t69.5 -48t85 -17.5t85 17.5t69.5 47t47 69.5t17.5 85q0 47 -17.5 87t-47 68.5t-69.5 46t-85 17.5t-85 -17.5t-69.5 -47t-47 -69.5t-17.5 -85z M615 1728q0 47 30.5 77t75.5 30t76 -30t31 -77q0 -43 -31 -74.5t-76 -31.5t-75.5 31.5t-30.5 74.5z" />
<glyph unicode="&#xc6;" horiz-adv-x="2086" d="M-29 0h406l119 262h446v-262h1059v328h-690v278h626v295h-626v256h671v305h-1327zM610 545l267 612h65v-612h-332z" />
<glyph unicode="&#xc7;" horiz-adv-x="1554" d="M86 731q0 -147 45 -278t129 -232.5t203 -167t266 -80.5l-100 -161l45 -39q20 6 39.5 10t42.5 4q88 0 88 -78q0 -39 -31 -57.5t-74 -14t-85 14.5t-83 24l-39 -92q45 -20 110 -41.5t132 -21.5q53 0 101.5 10t84 33.5t56 61.5t20.5 93q0 45 -16 77t-42 51.5t-56.5 27.5 t-59.5 8q-25 0 -43 -2t-39 -8l-4 4l64 94q135 2 248.5 44t198.5 119t136.5 186.5t59.5 246.5h-381q-10 -127 -85 -198.5t-210 -71.5q-92 0 -156.5 37t-105.5 98.5t-59.5 139t-18.5 159.5t18.5 160t59.5 139.5t105.5 98t156.5 36.5q121 0 199.5 -57t95.5 -168h381 q-4 133 -64.5 235.5t-155 173t-212 107.5t-236.5 37q-166 0 -300 -59.5t-229.5 -163t-147.5 -241.5t-52 -298z" />
<glyph unicode="&#xc8;" horiz-adv-x="1402" d="M131 0h1186v328h-805v278h717v295h-717v256h784v305h-1165v-1462zM327 1858l322 -305h246l-199 305h-369z" />
<glyph unicode="&#xc9;" horiz-adv-x="1402" d="M131 0h1186v328h-805v278h717v295h-717v256h784v305h-1165v-1462zM491 1553h246l321 305h-368z" />
<glyph unicode="&#xca;" horiz-adv-x="1402" d="M131 0h1186v328h-805v278h717v295h-717v256h784v305h-1165v-1462zM317 1553h262l123 163l123 -163h262l-229 305h-312z" />
<glyph unicode="&#xcb;" horiz-adv-x="1402" d="M131 0h1186v328h-805v278h717v295h-717v256h784v305h-1165v-1462zM331 1581h308v256h-308v-256zM768 1581h307v256h-307v-256z" />
<glyph unicode="&#xcc;" horiz-adv-x="645" d="M131 0h381v1462h-381v-1462zM-52 1858l322 -305h246l-199 305h-369z" />
<glyph unicode="&#xcd;" horiz-adv-x="645" d="M131 0h381v1462h-381v-1462zM112 1553h246l321 305h-368z" />
<glyph unicode="&#xce;" horiz-adv-x="645" d="M131 0h381v1462h-381v-1462zM-62 1553h262l123 163l123 -163h262l-229 305h-312z" />
<glyph unicode="&#xcf;" horiz-adv-x="645" d="M131 0h381v1462h-381v-1462zM-48 1581h308v256h-308v-256zM389 1581h307v256h-307v-256z" />
<glyph unicode="&#xd0;" horiz-adv-x="1554" d="M-16 606h147v-606h629q166 0 299 48t226 141.5t142.5 230.5t49.5 317q0 170 -49.5 304.5t-141.5 228.5t-225 143t-301 49h-629v-561h-147v-295zM512 328v278h324v295h-324v234h180q197 0 300.5 -97.5t103.5 -298.5q0 -111 -22.5 -187.5t-71 -125.5t-125 -72.5 t-185.5 -25.5h-180z" />
<glyph unicode="&#xd1;" horiz-adv-x="1517" d="M127 0h358v911h4l508 -911h392v1462h-359v-901h-4l-508 901h-391v-1462zM373 1559h145q6 35 31 63.5t60 28.5q29 0 61.5 -11.5t69 -25.5t77.5 -25.5t89 -11.5q59 0 101 21.5t71.5 56.5t47 83t23.5 99h-145q-4 -31 -27.5 -57.5t-58.5 -26.5q-25 0 -59.5 13.5t-73.5 29.5 q-41 16 -82 28.5t-82 12.5q-55 0 -98 -24.5t-74 -64.5t-50.5 -90t-25.5 -99z" />
<glyph unicode="&#xd2;" horiz-adv-x="1593" d="M76 731q0 -160 48 -298t140 -241.5t226.5 -163t306.5 -59.5t306 59.5t226 163t140.5 241.5t48.5 298t-48.5 298t-140.5 241.5t-226 163t-306 59.5t-306.5 -59.5t-226.5 -163t-140 -241.5t-48 -298zM457 731q0 82 18.5 160t59 139.5t105.5 98t157 36.5t156.5 -36.5 t105.5 -98t59.5 -139.5t18.5 -160t-18.5 -159.5t-59.5 -139t-105.5 -98.5t-156.5 -37t-157 37t-105.5 98.5t-59 139t-18.5 159.5zM422 1858l322 -305h246l-199 305h-369z" />
<glyph unicode="&#xd3;" horiz-adv-x="1593" d="M76 731q0 -160 48 -298t140 -241.5t226.5 -163t306.5 -59.5t306 59.5t226 163t140.5 241.5t48.5 298t-48.5 298t-140.5 241.5t-226 163t-306 59.5t-306.5 -59.5t-226.5 -163t-140 -241.5t-48 -298zM457 731q0 82 18.5 160t59 139.5t105.5 98t157 36.5t156.5 -36.5 t105.5 -98t59.5 -139.5t18.5 -160t-18.5 -159.5t-59.5 -139t-105.5 -98.5t-156.5 -37t-157 37t-105.5 98.5t-59 139t-18.5 159.5zM586 1553h246l321 305h-368z" />
<glyph unicode="&#xd4;" horiz-adv-x="1593" d="M76 731q0 -160 48 -298t140 -241.5t226.5 -163t306.5 -59.5t306 59.5t226 163t140.5 241.5t48.5 298t-48.5 298t-140.5 241.5t-226 163t-306 59.5t-306.5 -59.5t-226.5 -163t-140 -241.5t-48 -298zM457 731q0 82 18.5 160t59 139.5t105.5 98t157 36.5t156.5 -36.5 t105.5 -98t59.5 -139.5t18.5 -160t-18.5 -159.5t-59.5 -139t-105.5 -98.5t-156.5 -37t-157 37t-105.5 98.5t-59 139t-18.5 159.5zM412 1553h262l123 163l123 -163h262l-229 305h-312z" />
<glyph unicode="&#xd5;" horiz-adv-x="1593" d="M76 731q0 -160 48 -298t140 -241.5t226.5 -163t306.5 -59.5t306 59.5t226 163t140.5 241.5t48.5 298t-48.5 298t-140.5 241.5t-226 163t-306 59.5t-306.5 -59.5t-226.5 -163t-140 -241.5t-48 -298zM457 731q0 82 18.5 160t59 139.5t105.5 98t157 36.5t156.5 -36.5 t105.5 -98t59.5 -139.5t18.5 -160t-18.5 -159.5t-59.5 -139t-105.5 -98.5t-156.5 -37t-157 37t-105.5 98.5t-59 139t-18.5 159.5zM410 1559h145q6 35 31 63.5t60 28.5q29 0 61.5 -11.5t69 -25.5t77.5 -25.5t89 -11.5q59 0 101 21.5t71.5 56.5t47 83t23.5 99h-145 q-4 -31 -27.5 -57.5t-58.5 -26.5q-25 0 -59.5 13.5t-73.5 29.5q-41 16 -82 28.5t-82 12.5q-55 0 -98 -24.5t-74 -64.5t-50.5 -90t-25.5 -99z" />
<glyph unicode="&#xd6;" horiz-adv-x="1593" d="M76 731q0 -160 48 -298t140 -241.5t226.5 -163t306.5 -59.5t306 59.5t226 163t140.5 241.5t48.5 298t-48.5 298t-140.5 241.5t-226 163t-306 59.5t-306.5 -59.5t-226.5 -163t-140 -241.5t-48 -298zM457 731q0 82 18.5 160t59 139.5t105.5 98t157 36.5t156.5 -36.5 t105.5 -98t59.5 -139.5t18.5 -160t-18.5 -159.5t-59.5 -139t-105.5 -98.5t-156.5 -37t-157 37t-105.5 98.5t-59 139t-18.5 159.5zM426 1581h308v256h-308v-256zM863 1581h307v256h-307v-256z" />
<glyph unicode="&#xd7;" horiz-adv-x="1228" d="M111 223l208 -209l295 295l295 -295l209 209l-295 295l295 295l-209 209l-295 -295l-295 295l-208 -209l295 -295z" />
<glyph unicode="&#xd8;" horiz-adv-x="1593" d="M45 20l117 -102l182 199q88 -72 200.5 -110t252.5 -38q172 0 306 59.5t226 163t140.5 241.5t48.5 298q0 145 -40 273.5t-118 228.5l178 194l-119 103l-168 -184q-90 72 -202.5 109.5t-251.5 37.5q-172 0 -306.5 -59.5t-226.5 -163t-140 -241.5t-48 -298q0 -147 40 -276 t117 -228zM457 731q0 82 18.5 160t59 139.5t105.5 98t157 36.5q72 0 125 -21.5t92 -60.5l-520 -569q-37 98 -37 217zM582 379l518 567q20 -51 28.5 -105.5t8.5 -109.5q0 -82 -18.5 -159.5t-59.5 -139t-105.5 -98.5t-156.5 -37q-68 0 -121 21.5t-94 60.5z" />
<glyph unicode="&#xd9;" horiz-adv-x="1517" d="M121 604q0 -317 152.5 -476t484.5 -159t484.5 159t152.5 476v858h-381v-880q0 -141 -57.5 -213t-198.5 -72t-198.5 71.5t-57.5 213.5v880h-381v-858zM385 1858l322 -305h246l-199 305h-369z" />
<glyph unicode="&#xda;" horiz-adv-x="1517" d="M121 604q0 -317 152.5 -476t484.5 -159t484.5 159t152.5 476v858h-381v-880q0 -141 -57.5 -213t-198.5 -72t-198.5 71.5t-57.5 213.5v880h-381v-858zM549 1553h246l321 305h-368z" />
<glyph unicode="&#xdb;" horiz-adv-x="1517" d="M121 604q0 -317 152.5 -476t484.5 -159t484.5 159t152.5 476v858h-381v-880q0 -141 -57.5 -213t-198.5 -72t-198.5 71.5t-57.5 213.5v880h-381v-858zM375 1553h262l123 163l123 -163h262l-229 305h-312z" />
<glyph unicode="&#xdc;" horiz-adv-x="1517" d="M121 604q0 -317 152.5 -476t484.5 -159t484.5 159t152.5 476v858h-381v-880q0 -141 -57.5 -213t-198.5 -72t-198.5 71.5t-57.5 213.5v880h-381v-858zM389 1581h308v256h-308v-256zM826 1581h307v256h-307v-256z" />
<glyph unicode="&#xdd;" horiz-adv-x="1366" d="M-39 1462l533 -917v-545h380v545l533 917h-432l-291 -594l-291 594h-432zM473 1553h246l321 305h-368z" />
<glyph unicode="&#xde;" horiz-adv-x="1402" d="M131 0h381v299h313q121 0 218.5 27.5t167 88t106.5 157t37 231.5q0 129 -44 219t-118 146.5t-169 81t-198 24.5h-313v188h-381v-1462zM512 594v375h256q88 0 146.5 -44t58.5 -149q0 -100 -57.5 -141t-147.5 -41h-256z" />
<glyph unicode="&#xdf;" d="M117 0h348v965q0 57 4 105t21.5 83t53.5 54.5t99 19.5q72 0 117 -42t45 -120q0 -51 -20.5 -85t-54.5 -52.5t-76 -24.5t-83 -2v-207q59 4 111.5 -4t93.5 -32.5t64.5 -67.5t23.5 -111q0 -98 -54 -160.5t-155 -62.5q-23 0 -44 2t-44 6v-264q43 -4 86 -7t86 -3 q104 0 191.5 32.5t150 92t97 145.5t34.5 191q0 61 -17 119.5t-50 107.5t-82 84t-111 47v4q86 31 132 111t46 170q0 104 -44 180t-114.5 125t-159.5 71.5t-181 22.5q-135 0 -232.5 -38t-160 -101.5t-92 -147.5t-29.5 -178v-1028z" />
<glyph unicode="&#xe0;" horiz-adv-x="1214" d="M59 291q0 -82 28 -142.5t77 -100.5t115.5 -59.5t142.5 -19.5q96 0 189.5 30t160.5 101q4 -27 7 -51t14 -49h350q-31 63 -36 134t-5 138v465q0 113 -42 182.5t-111.5 108.5t-159 52.5t-183.5 13.5q-92 0 -179 -16.5t-158.5 -57.5t-117 -110.5t-49.5 -174.5h326 q25 133 174 133q27 0 56.5 -6t54 -19.5t41 -34t16.5 -50.5q0 -49 -23.5 -68.5t-68.5 -30.5q-59 -12 -129 -20t-138.5 -20.5t-132 -33t-112.5 -57t-78 -94t-29 -143.5zM408 305q0 63 42 92t101 43q57 16 117.5 25.5t97.5 32.5q1 -19 1 -37q0 -137 -42 -203q-47 -74 -172 -74 q-59 0 -102 27.5t-43 93.5zM233 1483l322 -305h246l-199 305h-369z" />
<glyph unicode="&#xe1;" horiz-adv-x="1214" d="M59 291q0 -82 28 -142.5t77 -100.5t115.5 -59.5t142.5 -19.5q96 0 189.5 30t160.5 101q4 -27 7 -51t14 -49h350q-31 63 -36 134t-5 138v465q0 113 -42 182.5t-111.5 108.5t-159 52.5t-183.5 13.5q-92 0 -179 -16.5t-158.5 -57.5t-117 -110.5t-49.5 -174.5h326 q25 133 174 133q27 0 56.5 -6t54 -19.5t41 -34t16.5 -50.5q0 -49 -23.5 -68.5t-68.5 -30.5q-59 -12 -129 -20t-138.5 -20.5t-132 -33t-112.5 -57t-78 -94t-29 -143.5zM408 305q0 63 42 92t101 43q57 16 117.5 25.5t97.5 32.5q1 -19 1 -37q0 -137 -42 -203q-47 -74 -172 -74 q-59 0 -102 27.5t-43 93.5zM397 1178h246l321 305h-368z" />
<glyph unicode="&#xe2;" horiz-adv-x="1214" d="M59 291q0 -82 28 -142.5t77 -100.5t115.5 -59.5t142.5 -19.5q96 0 189.5 30t160.5 101q4 -27 7 -51t14 -49h350q-31 63 -36 134t-5 138v465q0 113 -42 182.5t-111.5 108.5t-159 52.5t-183.5 13.5q-92 0 -179 -16.5t-158.5 -57.5t-117 -110.5t-49.5 -174.5h326 q25 133 174 133q27 0 56.5 -6t54 -19.5t41 -34t16.5 -50.5q0 -49 -23.5 -68.5t-68.5 -30.5q-59 -12 -129 -20t-138.5 -20.5t-132 -33t-112.5 -57t-78 -94t-29 -143.5zM408 305q0 63 42 92t101 43q57 16 117.5 25.5t97.5 32.5q1 -19 1 -37q0 -137 -42 -203q-47 -74 -172 -74 q-59 0 -102 27.5t-43 93.5zM223 1178h262l123 163l123 -163h262l-229 305h-312z" />
<glyph unicode="&#xe3;" horiz-adv-x="1214" d="M59 291q0 -82 28 -142.5t77 -100.5t115.5 -59.5t142.5 -19.5q96 0 189.5 30t160.5 101q4 -27 7 -51t14 -49h350q-31 63 -36 134t-5 138v465q0 113 -42 182.5t-111.5 108.5t-159 52.5t-183.5 13.5q-92 0 -179 -16.5t-158.5 -57.5t-117 -110.5t-49.5 -174.5h326 q25 133 174 133q27 0 56.5 -6t54 -19.5t41 -34t16.5 -50.5q0 -49 -23.5 -68.5t-68.5 -30.5q-59 -12 -129 -20t-138.5 -20.5t-132 -33t-112.5 -57t-78 -94t-29 -143.5zM408 305q0 63 42 92t101 43q57 16 117.5 25.5t97.5 32.5q1 -19 1 -37q0 -137 -42 -203q-47 -74 -172 -74 q-59 0 -102 27.5t-43 93.5zM221 1184h145q6 35 31 63.5t60 28.5q29 0 61.5 -11.5t69 -25.5t77.5 -25.5t89 -11.5q59 0 101 21.5t71.5 56.5t47 83t23.5 99h-145q-4 -31 -27.5 -57.5t-58.5 -26.5q-25 0 -59.5 13.5t-73.5 29.5q-41 16 -82 28.5t-82 12.5q-55 0 -98 -24.5 t-74 -64.5t-50.5 -90t-25.5 -99z" />
<glyph unicode="&#xe4;" horiz-adv-x="1214" d="M59 291q0 -82 28 -142.5t77 -100.5t115.5 -59.5t142.5 -19.5q96 0 189.5 30t160.5 101q4 -27 7 -51t14 -49h350q-31 63 -36 134t-5 138v465q0 113 -42 182.5t-111.5 108.5t-159 52.5t-183.5 13.5q-92 0 -179 -16.5t-158.5 -57.5t-117 -110.5t-49.5 -174.5h326 q25 133 174 133q27 0 56.5 -6t54 -19.5t41 -34t16.5 -50.5q0 -49 -23.5 -68.5t-68.5 -30.5q-59 -12 -129 -20t-138.5 -20.5t-132 -33t-112.5 -57t-78 -94t-29 -143.5zM408 305q0 63 42 92t101 43q57 16 117.5 25.5t97.5 32.5q1 -19 1 -37q0 -137 -42 -203q-47 -74 -172 -74 q-59 0 -102 27.5t-43 93.5zM237 1206h308v256h-308v-256zM674 1206h307v256h-307v-256z" />
<glyph unicode="&#xe5;" horiz-adv-x="1214" d="M59 291q0 -82 28 -142.5t77 -100.5t115.5 -59.5t142.5 -19.5q96 0 189.5 30t160.5 101q4 -27 7 -51t14 -49h350q-31 63 -36 134t-5 138v465q0 113 -42 182.5t-111.5 108.5t-159 52.5t-183.5 13.5q-92 0 -179 -16.5t-158.5 -57.5t-117 -110.5t-49.5 -174.5h326 q25 133 174 133q27 0 56.5 -6t54 -19.5t41 -34t16.5 -50.5q0 -49 -23.5 -68.5t-68.5 -30.5q-59 -12 -129 -20t-138.5 -20.5t-132 -33t-112.5 -57t-78 -94t-29 -143.5zM408 305q0 63 42 92t101 43q57 16 117.5 25.5t97.5 32.5q1 -19 1 -37q0 -137 -42 -203q-47 -74 -172 -74 q-59 0 -102 27.5t-43 93.5zM389 1366q0 -43 17.5 -83t47 -70.5t69.5 -48t85 -17.5t85 17.5t69.5 47t47 69.5t17.5 85q0 47 -17.5 87t-47 68.5t-69.5 46t-85 17.5t-85 -17.5t-69.5 -47t-47 -69.5t-17.5 -85zM502 1366q0 47 30.5 77t75.5 30t76 -30t31 -77q0 -43 -31 -74.5 t-76 -31.5t-75.5 31.5t-30.5 74.5z" />
<glyph unicode="&#xe6;" horiz-adv-x="1933" d="M59 291q0 -82 29 -142.5t79 -100.5t120.5 -59.5t154.5 -19.5q78 0 144.5 8.5t125 28t113 50t109.5 75.5q37 -45 84 -75.5t101.5 -50t111.5 -28t112 -8.5q86 0 167 23.5t148.5 71t117 112t71.5 146.5h-327q-29 -59 -76 -88t-129 -29q-55 0 -96 20.5t-67 54t-39 77.5 t-13 89h764q10 129 -22 247t-101.5 207t-175 141.5t-240.5 52.5q-94 0 -180 -32t-152 -101q-33 41 -78 66.5t-97 39.5t-106.5 20.5t-105.5 6.5q-92 0 -179 -16.5t-158.5 -57.5t-117 -110.5t-49.5 -174.5h326q25 133 174 133q41 0 77 -4t62.5 -17t42 -36t15.5 -59 q0 -14 -4 -26.5t-16.5 -23t-36 -20.5t-64.5 -23q-59 -12 -129 -20t-138.5 -20.5t-132 -33t-112.5 -57t-78 -94t-29 -143.5zM408 303q0 66 47 93.5t112 39.5q66 14 130.5 23.5t99.5 38.5v-88q0 -53 -18.5 -103.5t-65.5 -86.5t-140 -36q-27 0 -55.5 5.5t-53 18.5t-40.5 36.5 t-16 58.5zM1100 641q4 43 20.5 82t43 68.5t64.5 48t85 18.5q98 0 150.5 -62.5t52.5 -154.5h-416z" />
<glyph unicode="&#xe7;" horiz-adv-x="1214" d="M66 514q0 -113 36.5 -208t102 -164.5t156 -112.5t198.5 -54l-100 -163l45 -39q20 6 39.5 10t42.5 4q88 0 88 -78q0 -39 -31 -57.5t-74 -14t-85 14.5t-83 24l-39 -92q45 -20 110 -41.5t132 -21.5q53 0 101.5 10t84 33.5t56 61.5t20.5 93q0 45 -16 77t-42 51.5t-56.5 27.5 t-59.5 8q-25 0 -43 -2t-39 -8l-4 4l64 96q98 6 182 38t148.5 89.5t105.5 137t51 180.5h-338q-12 -86 -59 -134t-139 -48q-55 0 -94.5 24.5t-65 63t-36.5 89t-11 101.5q0 55 8 111.5t31.5 100.5t67.5 72.5t118 28.5q33 0 63.5 -11t54 -31.5t38 -48t14.5 -62.5h338 q-8 104 -54 183t-118 131t-163 79t-189 27q-129 0 -231.5 -43t-175.5 -120t-111.5 -183.5t-38.5 -233.5z" />
<glyph unicode="&#xe8;" horiz-adv-x="1251" d="M66 535q0 -133 42 -239t118.5 -178.5t184 -110.5t236.5 -38q90 0 174 20.5t155 63.5t123 109.5t77 159.5h-326q-25 -59 -80 -88t-119 -29q-111 0 -172 65.5t-65 175.5h780q1 21 1 43q0 112 -28 210q-33 118 -102.5 206t-176 138.5t-249.5 50.5q-117 0 -221.5 -42 t-183 -116t-123.5 -176t-45 -225zM414 641q16 98 74.5 157.5t150.5 59.5q88 0 145.5 -63.5t61.5 -153.5h-432zM252 1483l322 -305h246l-199 305h-369z" />
<glyph unicode="&#xe9;" horiz-adv-x="1251" d="M66 535q0 -133 42 -239t118.5 -178.5t184 -110.5t236.5 -38q90 0 174 20.5t155 63.5t123 109.5t77 159.5h-326q-25 -59 -80 -88t-119 -29q-111 0 -172 65.5t-65 175.5h780q1 21 1 43q0 112 -28 210q-33 118 -102.5 206t-176 138.5t-249.5 50.5q-117 0 -221.5 -42 t-183 -116t-123.5 -176t-45 -225zM414 641q16 98 74.5 157.5t150.5 59.5q88 0 145.5 -63.5t61.5 -153.5h-432zM416 1178h246l321 305h-368z" />
<glyph unicode="&#xea;" horiz-adv-x="1251" d="M66 535q0 -133 42 -239t118.5 -178.5t184 -110.5t236.5 -38q90 0 174 20.5t155 63.5t123 109.5t77 159.5h-326q-25 -59 -80 -88t-119 -29q-111 0 -172 65.5t-65 175.5h780q1 21 1 43q0 112 -28 210q-33 118 -102.5 206t-176 138.5t-249.5 50.5q-117 0 -221.5 -42 t-183 -116t-123.5 -176t-45 -225zM414 641q16 98 74.5 157.5t150.5 59.5q88 0 145.5 -63.5t61.5 -153.5h-432zM242 1178h262l123 163l123 -163h262l-229 305h-312z" />
<glyph unicode="&#xeb;" horiz-adv-x="1251" d="M66 535q0 -133 42 -239t118.5 -178.5t184 -110.5t236.5 -38q90 0 174 20.5t155 63.5t123 109.5t77 159.5h-326q-25 -59 -80 -88t-119 -29q-111 0 -172 65.5t-65 175.5h780q1 21 1 43q0 112 -28 210q-33 118 -102.5 206t-176 138.5t-249.5 50.5q-117 0 -221.5 -42 t-183 -116t-123.5 -176t-45 -225zM414 641q16 98 74.5 157.5t150.5 59.5q88 0 145.5 -63.5t61.5 -153.5h-432zM256 1206h308v256h-308v-256zM693 1206h307v256h-307v-256z" />
<glyph unicode="&#xec;" horiz-adv-x="606" d="M129 0h348v1063h-348v-1063zM-72 1483l322 -305h246l-199 305h-369z" />
<glyph unicode="&#xed;" horiz-adv-x="606" d="M129 0h348v1063h-348v-1063zM92 1178h246l321 305h-368z" />
<glyph unicode="&#xee;" horiz-adv-x="606" d="M129 0h348v1063h-348v-1063zM-82 1178h262l123 163l123 -163h262l-229 305h-312z" />
<glyph unicode="&#xef;" horiz-adv-x="606" d="M129 0h348v1063h-348v-1063zM-68 1206h308v256h-308v-256zM369 1206h307v256h-307v-256z" />
<glyph unicode="&#xf0;" horiz-adv-x="1251" d="M66 496q0 -113 40.5 -209.5t114.5 -167t177.5 -110.5t226.5 -40t226 41t178 120t116 191.5t41 256.5q0 115 -26.5 226t-73 211.5t-110 186.5t-136.5 148l243 133l-139 125l-254 -140q-31 29 -95.5 65t-135.5 60l-232 -159q43 -14 96.5 -41t112.5 -66l-248 -135l138 -123 l262 143q53 -51 100 -108t78 -121l-4 -4q-43 29 -95.5 36t-103.5 7q-100 0 -190 -40t-159 -110.5t-108.5 -166.5t-39.5 -209zM414 496q0 41 10 87t34.5 84t64.5 63.5t102 25.5q61 0 102 -25.5t65.5 -63.5t35 -84t10.5 -87t-10.5 -87.5t-35 -84t-65.5 -63t-102 -25.5 t-101.5 25.5t-65 63t-34.5 84t-10 87.5z" />
<glyph unicode="&#xf1;" d="M117 0h348v580q0 43 11 84t33.5 72.5t58.5 51t85 19.5q72 0 108 -25.5t51 -66.5t15 -94v-107v-514h349v682q0 57 -10.5 129t-48.5 134.5t-114.5 105.5t-209.5 43q-47 0 -96.5 -12.5t-94.5 -35t-82 -55.5t-61 -73h-4v145h-338v-1063zM258 1184h145q6 35 31 63.5t60 28.5 q29 0 61.5 -11.5t69 -25.5t77.5 -25.5t89 -11.5q59 0 101 21.5t71.5 56.5t47 83t23.5 99h-145q-4 -31 -27.5 -57.5t-58.5 -26.5q-25 0 -59.5 13.5t-73.5 29.5q-41 16 -82 28.5t-82 12.5q-55 0 -98 -24.5t-74 -64.5t-50.5 -90t-25.5 -99z" />
<glyph unicode="&#xf2;" horiz-adv-x="1251" d="M66 530q0 -119 40.5 -222t114.5 -178t177.5 -118t226.5 -43t226 43t178 118t116 178.5t41 221.5q0 121 -41 223.5t-116 178.5t-178 119t-226 43t-226.5 -43t-177.5 -119t-114.5 -178.5t-40.5 -223.5zM414 530q0 51 10 103.5t34.5 95.5t64.5 70.5t102 27.5q61 0 102 -27.5 t65.5 -70.5t35 -95t10.5 -104q0 -51 -10.5 -103t-35 -95t-65.5 -69.5t-102 -26.5t-101.5 26.5t-65 69.5t-34.5 95t-10 103zM252 1483l322 -305h246l-199 305h-369z" />
<glyph unicode="&#xf3;" horiz-adv-x="1251" d="M66 530q0 -119 40.5 -222t114.5 -178t177.5 -118t226.5 -43t226 43t178 118t116 178.5t41 221.5q0 121 -41 223.5t-116 178.5t-178 119t-226 43t-226.5 -43t-177.5 -119t-114.5 -178.5t-40.5 -223.5zM414 530q0 51 10 103.5t34.5 95.5t64.5 70.5t102 27.5q61 0 102 -27.5 t65.5 -70.5t35 -95t10.5 -104q0 -51 -10.5 -103t-35 -95t-65.5 -69.5t-102 -26.5t-101.5 26.5t-65 69.5t-34.5 95t-10 103zM416 1178h246l321 305h-368z" />
<glyph unicode="&#xf4;" horiz-adv-x="1251" d="M66 530q0 -119 40.5 -222t114.5 -178t177.5 -118t226.5 -43t226 43t178 118t116 178.5t41 221.5q0 121 -41 223.5t-116 178.5t-178 119t-226 43t-226.5 -43t-177.5 -119t-114.5 -178.5t-40.5 -223.5zM414 530q0 51 10 103.5t34.5 95.5t64.5 70.5t102 27.5q61 0 102 -27.5 t65.5 -70.5t35 -95t10.5 -104q0 -51 -10.5 -103t-35 -95t-65.5 -69.5t-102 -26.5t-101.5 26.5t-65 69.5t-34.5 95t-10 103zM242 1178h262l123 163l123 -163h262l-229 305h-312z" />
<glyph unicode="&#xf5;" horiz-adv-x="1251" d="M66 530q0 -119 40.5 -222t114.5 -178t177.5 -118t226.5 -43t226 43t178 118t116 178.5t41 221.5q0 121 -41 223.5t-116 178.5t-178 119t-226 43t-226.5 -43t-177.5 -119t-114.5 -178.5t-40.5 -223.5zM414 530q0 51 10 103.5t34.5 95.5t64.5 70.5t102 27.5q61 0 102 -27.5 t65.5 -70.5t35 -95t10.5 -104q0 -51 -10.5 -103t-35 -95t-65.5 -69.5t-102 -26.5t-101.5 26.5t-65 69.5t-34.5 95t-10 103zM240 1184h145q6 35 31 63.5t60 28.5q29 0 61.5 -11.5t69 -25.5t77.5 -25.5t89 -11.5q59 0 101 21.5t71.5 56.5t47 83t23.5 99h-145 q-4 -31 -27.5 -57.5t-58.5 -26.5q-25 0 -59.5 13.5t-73.5 29.5q-41 16 -82 28.5t-82 12.5q-55 0 -98 -24.5t-74 -64.5t-50.5 -90t-25.5 -99z" />
<glyph unicode="&#xf6;" horiz-adv-x="1251" d="M66 530q0 -119 40.5 -222t114.5 -178t177.5 -118t226.5 -43t226 43t178 118t116 178.5t41 221.5q0 121 -41 223.5t-116 178.5t-178 119t-226 43t-226.5 -43t-177.5 -119t-114.5 -178.5t-40.5 -223.5zM414 530q0 51 10 103.5t34.5 95.5t64.5 70.5t102 27.5q61 0 102 -27.5 t65.5 -70.5t35 -95t10.5 -104q0 -51 -10.5 -103t-35 -95t-65.5 -69.5t-102 -26.5t-101.5 26.5t-65 69.5t-34.5 95t-10 103zM256 1206h308v256h-308v-256zM693 1206h307v256h-307v-256z" />
<glyph unicode="&#xf7;" horiz-adv-x="1228" d="M98 371h1032v295h-1032v-295zM412 94q0 -41 15 -77.5t43 -64.5t64.5 -44.5t79.5 -16.5t80 16.5t64.5 44.5t43 64.5t15.5 77.5q0 86 -58.5 144.5t-144.5 58.5t-144 -58.5t-58 -144.5zM412 942q0 -41 15 -78t43 -64.5t64.5 -44t79.5 -16.5t80 16.5t64.5 44t43 64.5t15.5 78 q0 86 -58.5 144.5t-144.5 58.5t-144 -58.5t-58 -144.5z" />
<glyph unicode="&#xf8;" horiz-adv-x="1251" d="M66 530q0 -117 38.5 -217t110.5 -176l-121 -141l86 -66l119 136q68 -47 149.5 -72t176.5 -25q123 0 226 43t178 118t116 178.5t41 221.5q0 115 -37 213.5t-109 174.5l107 122l-90 78l-105 -123q-139 98 -327 99q-123 0 -226.5 -43t-177.5 -119t-114.5 -178.5 t-40.5 -223.5zM414 530q0 51 10 103.5t34.5 95.5t64.5 70.5t102 27.5q43 0 75.5 -14t59.5 -41l-326 -379q-10 33 -15 67.5t-5 69.5zM494 289l325 375q18 -63 19 -134q0 -51 -10.5 -103t-35 -95t-65.5 -69.5t-102 -26.5q-84 0 -131 53z" />
<glyph unicode="&#xf9;" d="M115 424q0 -104 18.5 -188t63.5 -143.5t120.5 -91.5t190.5 -32q92 0 183 47t140 129h5v-145h338v1063h-349v-569q0 -70 -19.5 -116t-48 -74t-61 -38t-61.5 -10q-84 0 -128 42t-44 148v617h-348v-639zM270 1483l322 -305h246l-199 305h-369z" />
<glyph unicode="&#xfa;" d="M115 424q0 -104 18.5 -188t63.5 -143.5t120.5 -91.5t190.5 -32q92 0 183 47t140 129h5v-145h338v1063h-349v-569q0 -70 -19.5 -116t-48 -74t-61 -38t-61.5 -10q-84 0 -128 42t-44 148v617h-348v-639zM434 1178h246l321 305h-368z" />
<glyph unicode="&#xfb;" d="M115 424q0 -104 18.5 -188t63.5 -143.5t120.5 -91.5t190.5 -32q92 0 183 47t140 129h5v-145h338v1063h-349v-569q0 -70 -19.5 -116t-48 -74t-61 -38t-61.5 -10q-84 0 -128 42t-44 148v617h-348v-639zM260 1178h262l123 163l123 -163h262l-229 305h-312z" />
<glyph unicode="&#xfc;" d="M115 424q0 -104 18.5 -188t63.5 -143.5t120.5 -91.5t190.5 -32q92 0 183 47t140 129h5v-145h338v1063h-349v-569q0 -70 -19.5 -116t-48 -74t-61 -38t-61.5 -10q-84 0 -128 42t-44 148v617h-348v-639zM274 1206h308v256h-308v-256zM711 1206h307v256h-307v-256z" />
<glyph unicode="&#xfd;" horiz-adv-x="1099" d="M-14 1063l274 -739q8 -20 22.5 -59.5t29 -80.5t25.5 -78.5t11 -60.5q0 -55 -40 -87t-99 -32h-121v-282h164q88 0 156.5 8t122 35.5t94.5 79t71 139.5l420 1157h-356l-201 -692h-4l-201 692h-368zM340 1178h246l321 305h-368z" />
<glyph unicode="&#xfe;" d="M117 -356h348v471h4q109 -145 303 -146q113 0 197 45t140 121t84 172t28 201q0 113 -27 218t-82 187t-140 131.5t-200 49.5q-195 0 -303 -148h-4v516h-348v-1818zM453 543q0 82 20.5 137t51 88t68.5 46t73 13q57 0 97 -25.5t64.5 -66.5t34.5 -91t10 -101 q0 -55 -10 -109.5t-34.5 -98.5t-64.5 -71.5t-99 -27.5q-119 0 -165 84t-46 223z" />
<glyph unicode="&#xff;" horiz-adv-x="1099" d="M-14 1063l274 -739q8 -20 22.5 -59.5t29 -80.5t25.5 -78.5t11 -60.5q0 -55 -40 -87t-99 -32h-121v-282h164q88 0 156.5 8t122 35.5t94.5 79t71 139.5l420 1157h-356l-201 -692h-4l-201 692h-368zM180 1206h308v256h-308v-256zM617 1206h307v256h-307v-256z" />
<glyph unicode="&#x131;" horiz-adv-x="606" d="M129 0h348v1063h-348v-1063z" />
<glyph unicode="&#x152;" horiz-adv-x="2275" d="M76 731q0 -147 47 -285.5t137 -244t219 -169t291 -63.5q41 0 85 6.5t88 19.5t85 36.5t74 60.5v-92h1083v328h-727v278h649v295h-649v256h711v305h-1067v-96h-4q-57 74 -147.5 100.5t-180.5 26.5q-162 0 -291 -63.5t-219 -169t-137 -244t-47 -285.5zM457 731 q0 82 18.5 160t59 139.5t108.5 98t168 36.5q70 0 123 -28.5t90 -75.5t55.5 -107.5t18.5 -124.5v-196q0 -63 -18.5 -123.5t-55.5 -108t-90 -76t-123 -28.5q-100 0 -168 37t-108.5 98.5t-59 139t-18.5 159.5z" />
<glyph unicode="&#x153;" horiz-adv-x="1972" d="M66 516q0 -123 37.5 -223t108.5 -172t169 -112t221 -40q109 0 211 34t172 122q72 -86 172 -121t209 -35q92 0 178 21.5t158 64.5t125 109.5t78 157.5h-332q-31 -66 -75 -91.5t-118 -25.5q-109 0 -177 66.5t-66 174.5h778q4 135 -28 253t-99.5 206t-173 138.5t-250.5 50.5 q-47 0 -99.5 -10.5t-101.5 -30t-91 -49t-73 -68.5q-33 45 -74.5 75.5t-91 49t-101.5 26t-105 7.5q-129 0 -232.5 -42t-177.5 -119t-112.5 -183.5t-38.5 -233.5zM414 537q0 53 11 105t36.5 93t69.5 66.5t108 25.5q61 0 100 -28.5t60.5 -71.5t29 -95t7.5 -102q0 -47 -9.5 -99 t-32 -95t-61.5 -71.5t-98 -28.5q-68 0 -111 26.5t-67.5 68.5t-33.5 96.5t-9 109.5zM1133 641q6 90 65 153.5t156 63.5q104 0 153 -60.5t60 -156.5h-434z" />
<glyph unicode="&#x178;" horiz-adv-x="1366" d="M-39 1462l533 -917v-545h380v545l533 917h-432l-291 -594l-291 594h-432zM313 1581h308v256h-308v-256zM750 1581h307v256h-307v-256z" />
<glyph unicode="&#x2c6;" horiz-adv-x="606" d="M-82 1178h262l123 163l123 -163h262l-229 305h-312z" />
<glyph unicode="&#x2da;" horiz-adv-x="606" d="M84 1366q0 -43 17.5 -83t47 -70.5t69.5 -48t85 -17.5t85 17.5t69.5 47t47 69.5t17.5 85q0 47 -17.5 87t-47 68.5t-69.5 46t-85 17.5t-85 -17.5t-69.5 -47t-47 -69.5t-17.5 -85zM197 1366q0 47 30.5 77t75.5 30t76 -30t31 -77q0 -43 -31 -74.5t-76 -31.5t-75.5 31.5 t-30.5 74.5z" />
<glyph unicode="&#x2dc;" horiz-adv-x="606" d="M-84 1184h145q6 35 31 63.5t60 28.5q29 0 61.5 -11.5t69 -25.5t77.5 -25.5t89 -11.5q59 0 101 21.5t71.5 56.5t47 83t23.5 99h-145q-4 -31 -27.5 -57.5t-58.5 -26.5q-25 0 -59.5 13.5t-73.5 29.5q-41 16 -82 28.5t-82 12.5q-55 0 -98 -24.5t-74 -64.5t-50.5 -90 t-25.5 -99z" />
<glyph unicode="&#x2000;" horiz-adv-x="972" />
<glyph unicode="&#x2001;" horiz-adv-x="1947" />
<glyph unicode="&#x2002;" horiz-adv-x="972" />
<glyph unicode="&#x2003;" horiz-adv-x="1947" />
<glyph unicode="&#x2004;" horiz-adv-x="649" />
<glyph unicode="&#x2005;" horiz-adv-x="485" />
<glyph unicode="&#x2006;" horiz-adv-x="323" />
<glyph unicode="&#x2007;" horiz-adv-x="323" />
<glyph unicode="&#x2008;" horiz-adv-x="241" />
<glyph unicode="&#x2009;" horiz-adv-x="389" />
<glyph unicode="&#x200a;" horiz-adv-x="106" />
<glyph unicode="&#x2010;" horiz-adv-x="833" d="M98 410h637v295h-637v-295z" />
<glyph unicode="&#x2011;" horiz-adv-x="833" d="M98 410h637v295h-637v-295z" />
<glyph unicode="&#x2012;" horiz-adv-x="833" d="M98 410h637v295h-637v-295z" />
<glyph unicode="&#x2013;" horiz-adv-x="1024" d="M0 410h1024v295h-1024v-295z" />
<glyph unicode="&#x2014;" horiz-adv-x="2048" d="M0 410h2048v295h-2048v-295z" />
<glyph unicode="&#x2018;" horiz-adv-x="606" d="M141 725h326v381h-148q-4 72 38 126t110 66v164q-168 -29 -246 -136t-80 -261v-340z" />
<glyph unicode="&#x2019;" horiz-adv-x="606" d="M141 725q168 29 246 136.5t80 260.5v340h-326v-381h148q4 -72 -38 -126t-110 -66v-164z" />
<glyph unicode="&#x201a;" horiz-adv-x="606" d="M141 0h148q4 -72 -38 -126t-110 -67v-163q168 29 246 136t80 261v340h-326v-381z" />
<glyph unicode="&#x201c;" horiz-adv-x="1024" d="M113 725h325v381h-147q-4 72 38 126t109 66v164q-168 -29 -245.5 -136t-79.5 -261v-340zM586 725h325v381h-147q-4 72 38 126t109 66v164q-168 -29 -245.5 -136t-79.5 -261v-340z" />
<glyph unicode="&#x201d;" horiz-adv-x="1024" d="M113 725q168 29 245.5 136.5t79.5 260.5v340h-325v-381h147q4 -72 -38 -126t-109 -66v-164zM586 725q168 29 245.5 136.5t79.5 260.5v340h-325v-381h147q4 -72 -38 -126t-109 -66v-164z" />
<glyph unicode="&#x201e;" horiz-adv-x="1024" d="M113 0h147q4 -72 -38 -126t-109 -67v-163q168 29 245.5 136t79.5 261v340h-325v-381zM586 0h147q4 -72 -38 -126t-109 -67v-163q168 29 245.5 136t79.5 261v340h-325v-381z" />
<glyph unicode="&#x2022;" horiz-adv-x="1024" d="M147 731q0 -76 29 -142.5t78 -116.5t115.5 -78.5t142.5 -28.5t142.5 28.5t116.5 78.5t79 116.5t29 142.5t-29 142.5t-79 115.5t-116.5 78t-142.5 29t-142.5 -29t-115.5 -78t-78 -115.5t-29 -142.5z" />
<glyph unicode="&#x2026;" horiz-adv-x="2048" d="M152 0h380v381h-380v-381zM834 0h380v381h-380v-381zM1516 0h380v381h-380v-381z" />
<glyph unicode="&#x202f;" horiz-adv-x="389" />
<glyph unicode="&#x2039;" horiz-adv-x="493" d="M84 397l326 -260v281l-177 135l177 137v281l-326 -262v-312z" />
<glyph unicode="&#x203a;" horiz-adv-x="493" d="M84 137l326 262v312l-326 260v-281l176 -135l-176 -137v-281z" />
<glyph unicode="&#x205f;" horiz-adv-x="485" />
<glyph unicode="&#x2122;" horiz-adv-x="2048" d="M84 1268h225v-650h256v650h226v194h-707v-194zM961 618h225v553h4l182 -553h180l183 553h4v-553h225v844h-319l-183 -489l-182 489h-319v-844z" />
<glyph unicode="&#xe000;" horiz-adv-x="1065" d="M0 1065h1065v-1065h-1065v1065z" />
<glyph unicode="&#xfb01;" horiz-adv-x="1327" d="M25 838h168v-838h348v838h209v225h-209v47q0 72 34.5 89.5t94.5 17.5q45 0 94 -7v246q-41 2 -84 4t-84 2q-111 0 -188.5 -19.5t-124.5 -65.5t-68.5 -122.5t-21.5 -191.5h-168v-225zM850 0h348v1063h-348v-1063zM850 1196h348v266h-348v-266z" />
<glyph unicode="&#xfb02;" horiz-adv-x="1327" d="M25 838h168v-838h348v838h209v225h-209v47q0 72 34.5 89.5t94.5 17.5q45 0 94 -7v246q-41 2 -84 4t-84 2q-111 0 -188.5 -19.5t-124.5 -65.5t-68.5 -122.5t-21.5 -191.5h-168v-225zM850 0h348v1462h-348v-1462z" />
<glyph unicode="&#xfb03;" horiz-adv-x="2121" d="M1645 0h348v1063h-348v-1063zM1645 1196h348v266h-348v-266zM783 838h168v-838h348v838h209v225h-209v47q0 72 34.5 89.5t94.5 17.5q45 0 94 -7v246q-41 2 -84 4t-84 2q-111 0 -188.5 -19.5t-124.5 -65.5t-68.5 -122.5t-21.5 -191.5h-168v-225zM25 838h168v-838h348v838 h209v225h-209v47q0 72 34.5 89.5t94.5 17.5q45 0 94 -7v246q-41 2 -84 4t-84 2q-111 0 -188.5 -19.5t-124.5 -65.5t-68.5 -122.5t-21.5 -191.5h-168v-225z" />
<glyph unicode="&#xfb04;" horiz-adv-x="2121" d="M1645 0h348v1462h-348v-1462zM783 838h168v-838h348v838h209v225h-209v47q0 72 34.5 89.5t94.5 17.5q45 0 94 -7v246q-41 2 -84 4t-84 2q-111 0 -188.5 -19.5t-124.5 -65.5t-68.5 -122.5t-21.5 -191.5h-168v-225zM25 838h168v-838h348v838h209v225h-209v47 q0 72 34.5 89.5t94.5 17.5q45 0 94 -7v246q-41 2 -84 4t-84 2q-111 0 -188.5 -19.5t-124.5 -65.5t-68.5 -122.5t-21.5 -191.5h-168v-225z" />
</font>
</defs>
</svg>
